<svg width="51" height="51" viewBox="0 0 51 51" fill="none" xmlns="http://www.w3.org/2000/svg">
<path d="M36.4342 2C43.3741 2 49 7.62591 49 14.5658" stroke="#F9F9F9" stroke-width="2.5" stroke-linecap="round" stroke-linejoin="round"/>
<path d="M36.4342 9.53809C39.2102 9.53809 41.4605 11.7884 41.4605 14.5644" stroke="#F9F9F9" stroke-width="2.5" stroke-linecap="round" stroke-linejoin="round"/>
<path d="M26.3816 4.51367H13.8158C6.87591 4.51367 1.25 10.1396 1.25 17.0795V37.1848C1.25 44.1247 6.87591 49.7506 13.8158 49.7506H33.9211C40.861 49.7506 46.4869 44.1247 46.4869 37.1848V24.619" stroke="#F9F9F9" stroke-width="2.5" stroke-linecap="round" stroke-linejoin="round"/>
<rect x="11.3856" y="27.0488" width="7.65509" height="10.0526" rx="1.25" stroke="#007BEC" stroke-width="2.5" stroke-linecap="round" stroke-linejoin="round"/>
<rect x="28.6987" y="27.0488" width="7.65509" height="10.0526" rx="1.25" stroke="#007BEC" stroke-width="2.5" stroke-linecap="round" stroke-linejoin="round"/>
<path d="M36.3514 30.1898V27.0483C36.3514 20.1542 30.7626 14.5654 23.8685 14.5654V14.5654C16.9744 14.5654 11.3856 20.1542 11.3856 27.0483V30.1898" stroke="#007BEC" stroke-width="2.5" stroke-linecap="round" stroke-linejoin="round"/>
</svg>