<svg width="52" height="52" viewBox="0 0 52 52" fill="none" xmlns="http://www.w3.org/2000/svg">
    <path fillRule="evenodd" clipRrule="evenodd"
        d="M17.5387 43.752H10.9227C9.44533 43.752 8.248 42.5547 8.248 41.0773V34.4587C8.248 33.7493 7.96533 33.0693 7.464 32.568L2.784 27.888C1.73867 26.8427 1.73867 25.1493 2.784 24.1067L7.512 19.3787C7.984 18.9067 8.248 18.2693 8.248 17.6027V10.9227C8.248 9.44533 9.44533 8.248 10.9227 8.248H17.5413C18.2507 8.248 18.9307 7.96533 19.432 7.464L24.112 2.784C25.1573 1.73867 26.8507 1.73867 27.8933 2.784L32.5733 7.464C33.0747 7.96533 33.7547 8.248 34.464 8.248H41.0827C42.56 8.248 43.7573 9.44533 43.7573 10.9227V17.5413C43.7573 18.2507 44.04 18.9307 44.5413 19.432L49.2213 24.112C50.2667 25.1573 50.2667 26.8507 49.2213 27.8933L44.5413 32.5733C44.04 33.0747 43.7573 33.7547 43.7573 34.464V41.0827C43.7573 42.56 42.56 43.7573 41.0827 43.7573H34.464C33.7547 43.7573 33.0747 44.04 32.5733 44.5413L27.8933 49.2213C26.848 50.2667 25.1547 50.2667 24.112 49.2213L19.432 44.5413C18.928 44.032 18.248 43.752 17.5387 43.752Z"
        stroke="#F9F9F9" stroke-width="3.5" stroke-linecap="round" stroke-linejoin="round" />
    <path d="M34 22L24 32L18 26" stroke="#007BEC" stroke-width="3.5" stroke-linecap="round" stroke-linejoin="round" />
</svg>