<svg version="1.1" id="Layer_1" xmlns="http://www.w3.org/2000/svg" xmlns:xlink="http://www.w3.org/1999/xlink" x="0px" y="0px"
	 width="100%" viewBox="0 0 565 116" enable-background="new 0 0 565 116" xml:space="preserve">
<path fill="transparent" opacity="1.000000" stroke="none" 
	d="
M418.000000,117.000000 
	C278.666687,117.000000 139.833389,117.000000 1.000056,117.000000 
	C1.000037,78.333366 1.000037,39.666729 1.000019,1.000072 
	C189.333267,1.000048 377.666534,1.000048 565.999878,1.000024 
	C565.999878,39.666595 565.999878,78.333191 565.999939,116.999893 
	C516.833313,117.000000 467.666656,117.000000 418.000000,117.000000 
M356.457123,73.479958 
	C356.457123,56.898792 356.457123,40.317627 356.457123,23.813580 
	C351.587433,23.813580 347.488861,23.813580 343.208252,23.813580 
	C343.208252,44.297817 342.959229,64.446259 343.312347,84.584152 
	C343.491302,94.791542 350.963745,101.567841 361.594391,101.921936 
	C369.914215,102.199051 378.257538,102.182655 386.578247,101.916565 
	C396.680695,101.593483 403.705688,94.574837 404.110382,84.413551 
	C404.388489,77.430244 404.335876,70.417198 404.054688,63.432594 
	C403.737640,55.555557 398.900513,48.748394 391.104919,47.874882 
	C381.514282,46.800228 371.711548,47.618301 362.202698,47.618301 
	C362.202698,51.659660 362.202698,55.732784 362.202698,60.004925 
	C366.214722,60.004925 369.862823,60.004753 373.510895,60.004971 
	C377.175873,60.005188 380.842957,60.084991 384.505249,59.985748 
	C388.873474,59.867374 391.009003,61.941147 391.024139,66.254364 
	C391.042847,71.585136 390.970520,76.916824 391.044800,82.246628 
	C391.105896,86.631287 388.859528,88.710617 384.669983,88.798141 
	C380.007477,88.895546 375.341492,88.828934 370.677002,88.826889 
	C356.455048,88.820656 356.455048,88.819382 356.457123,73.479958 
M171.507538,102.008049 
	C176.339691,101.985756 181.182892,102.164391 186.001663,101.898956 
	C195.764038,101.361206 202.749130,94.232666 203.031830,84.439926 
	C203.233627,77.448792 203.254166,70.436005 202.947556,63.450794 
	C202.570190,54.853256 196.146393,47.625282 187.617416,47.152908 
	C177.203156,46.576122 166.732635,47.015629 156.080643,47.015629 
	C156.080643,51.221249 156.080643,55.136749 156.080643,59.532547 
	C157.936691,59.532547 159.569458,59.531929 161.202225,59.532654 
	C168.701141,59.535980 176.200256,59.509109 183.698898,59.556164 
	C187.438416,59.579632 190.400146,60.900364 190.510040,65.161461 
	C190.668839,71.319397 190.674408,77.489342 190.472015,83.645172 
	C190.370331,86.738243 188.942642,89.110344 185.288483,89.108368 
	C177.290268,89.104042 169.291580,89.160126 161.294083,89.084328 
	C157.789047,89.051109 155.444275,87.228271 155.479324,83.620605 
	C155.513504,80.102478 157.727020,78.211739 161.266708,78.044357 
	C162.763443,77.973587 164.265518,78.008865 165.765167,78.008163 
	C172.046234,78.005226 178.327316,78.006927 184.590271,78.006927 
	C184.590271,73.456306 184.590271,69.419960 184.590271,65.158478 
	C176.728699,65.158478 169.245544,65.141579 161.762604,65.176216 
	C160.604935,65.181572 159.440414,65.374886 158.292480,65.563072 
	C148.342117,67.194214 142.424881,74.687782 142.914032,85.011703 
	C143.350479,94.223137 150.441620,101.317345 160.017502,101.926430 
	C163.503677,102.148155 167.013916,101.991875 171.507538,102.008049 
M474.947937,76.475021 
	C474.942261,72.810783 475.055481,69.141777 474.908752,65.483192 
	C474.458282,54.251762 467.414948,47.128872 456.283569,46.885223 
	C447.960571,46.703045 439.621490,46.659653 431.304291,46.960724 
	C421.254791,47.324497 414.197052,54.609501 413.939423,64.577568 
	C413.780273,70.736076 413.787109,76.904007 413.914337,83.063683 
	C414.154266,94.678322 421.456299,101.817940 433.187805,101.986588 
	C438.849640,102.067978 444.530609,101.717834 450.173431,102.055573 
	C467.139099,103.070999 476.390228,95.460770 474.947937,76.475021 
M243.362457,88.831146 
	C233.629379,88.831146 223.896301,88.831146 214.313263,88.831146 
	C214.313263,93.644051 214.313263,97.718735 214.313263,101.947052 
	C226.596680,101.947052 238.576843,102.284233 250.529282,101.853256 
	C262.748993,101.412651 269.865753,92.273125 268.108948,80.226051 
	C266.784088,71.141006 260.534210,65.344955 251.224670,64.979271 
	C244.574982,64.718071 237.902542,65.016335 231.255524,64.721062 
	C229.722595,64.652969 228.252151,63.178566 226.752945,62.351326 
	C228.312027,61.567894 229.799164,60.494545 231.450943,60.084724 
	C233.019287,59.695610 234.759918,60.000813 236.424789,60.000809 
	C244.852722,60.000786 253.280670,60.000797 261.712921,60.000797 
	C261.712921,55.333969 261.712921,51.253613 261.712921,46.844975 
	C250.828964,46.844975 240.204468,46.719048 229.584412,46.881947 
	C219.821442,47.031700 213.150375,53.639542 213.297897,62.637161 
	C213.448242,71.807442 220.020966,77.900574 229.949890,77.990662 
	C236.608810,78.051086 243.268661,78.000893 249.927963,78.029877 
	C253.123154,78.043777 254.808746,79.683540 255.087463,82.879654 
	C255.369476,86.113686 253.855453,88.017128 250.773224,88.498024 
	C248.654587,88.828575 246.469772,88.735069 243.362457,88.831146 
M319.440887,46.832226 
	C310.619904,46.864300 301.790863,46.673759 292.980194,46.991772 
	C284.364960,47.302723 278.064331,54.270844 278.234650,62.680408 
	C278.409576,71.315750 284.700226,77.723228 293.430939,77.945816 
	C299.252991,78.094238 305.081421,77.995262 310.907013,77.999786 
	C318.167877,78.005417 320.045380,79.109673 320.063843,83.402008 
	C320.081482,87.499321 317.942230,88.786247 310.718262,88.815346 
	C300.279785,88.857391 289.841034,88.826103 279.318054,88.826103 
	C279.318054,93.470863 279.318054,97.661331 279.318054,101.971313 
	C291.483765,101.971313 303.299072,102.236809 315.096954,101.896881 
	C326.966797,101.554878 334.407867,92.921051 333.227722,81.600449 
	C332.138245,71.149193 325.772858,65.196838 315.062531,64.900505 
	C308.409576,64.716423 301.744995,64.941025 295.093140,64.737343 
	C293.950043,64.702339 292.844604,63.438511 291.721771,62.742336 
	C292.641602,61.837925 293.429810,60.425919 294.511414,60.145447 
	C296.229034,59.700039 298.142639,60.002666 299.973328,60.002087 
	C308.890228,59.999249 317.807129,60.000805 326.645599,60.000805 
	C326.645599,55.282452 326.645599,51.203529 326.645599,46.832218 
	C324.373840,46.832218 322.399109,46.832218 319.440887,46.832226 
M543.579163,61.163769 
	C539.202148,51.750126 531.583496,47.185322 521.441040,46.913330 
	C511.962677,46.659145 502.472626,46.786304 492.988159,46.834118 
	C486.457367,46.867039 484.304474,49.000767 484.277710,55.516205 
	C484.222321,68.994751 484.260712,82.473694 484.260529,95.952469 
	C484.260498,97.888069 484.260498,99.823677 484.260498,101.795837 
	C489.016724,101.795837 493.124084,101.795837 497.709045,101.795837 
	C497.709045,87.871674 497.709045,74.154327 497.709045,60.147312 
	C506.298981,60.147312 514.428955,59.836922 522.521667,60.252735 
	C528.239746,60.546535 531.721375,64.727623 532.044739,70.560341 
	C532.219543,73.712967 532.118835,76.881485 532.122070,80.042862 
	C532.129517,87.296410 532.124451,94.549965 532.124451,101.776688 
	C536.903931,101.776688 541.004028,101.776688 545.544250,101.776688 
	C545.544250,94.755310 545.759338,87.955124 545.482117,81.175079 
	C545.218811,74.734268 544.440491,68.314522 543.579163,61.163769 
M20.937584,75.443710 
	C27.071527,91.087357 38.531979,99.865173 55.277481,100.690224 
	C68.000038,101.317070 78.547562,96.310104 86.086868,85.507393 
	C78.898331,90.271866 71.387321,93.683090 62.535385,93.085686 
	C53.367977,92.466972 45.760796,88.774277 40.313763,81.439102 
	C32.160526,70.459648 30.738951,58.133038 38.400093,46.928162 
	C51.385437,27.936327 68.464958,28.486670 87.655930,41.205151 
	C77.661934,25.727261 57.219326,20.523674 40.806557,27.928827 
	C22.976387,35.973480 14.841064,54.866131 20.937584,75.443710 
M133.332535,93.555817 
	C133.255753,92.102425 133.178986,90.649033 133.105148,89.251122 
	C122.065567,87.945023 122.063965,87.945023 122.063049,76.603851 
	C122.061752,60.610771 122.069641,44.617683 122.053276,28.624622 
	C122.051643,27.024319 121.909683,25.424158 121.830956,23.784416 
	C117.360992,23.784416 113.278488,23.784416 108.920380,23.784416 
	C108.920380,43.402000 108.845062,62.715477 108.945358,82.028038 
	C109.019165,96.239258 118.752823,103.997017 133.332367,101.394615 
	C133.332367,99.144379 133.332367,96.837471 133.332535,93.555817 
M95.684441,37.179089 
	C95.506248,34.592350 96.357941,31.065554 94.988953,29.565744 
	C82.664627,16.063751 60.149490,13.012197 45.650471,20.703398 
	C45.914272,20.846777 46.160072,21.082695 46.422466,21.102877 
	C47.082474,21.153643 47.762306,21.187447 48.412659,21.087675 
	C65.437088,18.475965 79.036636,24.283983 89.844727,37.519287 
	C90.592155,38.434566 93.343231,37.713657 95.684441,37.179089 
M91.240417,99.788994 
	C93.100098,98.128578 95.256905,96.696342 96.748947,94.753571 
	C98.918053,91.929222 98.169144,89.018623 95.547562,86.806915 
	C92.705933,84.409569 91.309006,86.719582 89.602783,88.726372 
	C79.644638,100.438713 67.169006,106.066139 51.628517,104.126625 
	C50.000885,103.923492 48.325958,104.099312 46.672974,104.099312 
	C62.062248,110.160080 76.830780,109.959274 91.240417,99.788994 
z"/>
<path fill="#a6adbb" opacity="1.000000" stroke="none" 
	d="
M356.456482,73.974899 
	C356.455048,88.819382 356.455048,88.820656 370.677002,88.826889 
	C375.341492,88.828934 380.007477,88.895546 384.669983,88.798141 
	C388.859528,88.710617 391.105896,86.631287 391.044800,82.246628 
	C390.970520,76.916824 391.042847,71.585136 391.024139,66.254364 
	C391.009003,61.941147 388.873474,59.867374 384.505249,59.985748 
	C380.842957,60.084991 377.175873,60.005188 373.510895,60.004971 
	C369.862823,60.004753 366.214722,60.004925 362.202698,60.004925 
	C362.202698,55.732784 362.202698,51.659660 362.202698,47.618301 
	C371.711548,47.618301 381.514282,46.800228 391.104919,47.874882 
	C398.900513,48.748394 403.737640,55.555557 404.054688,63.432594 
	C404.335876,70.417198 404.388489,77.430244 404.110382,84.413551 
	C403.705688,94.574837 396.680695,101.593483 386.578247,101.916565 
	C378.257538,102.182655 369.914215,102.199051 361.594391,101.921936 
	C350.963745,101.567841 343.491302,94.791542 343.312347,84.584152 
	C342.959229,64.446259 343.208252,44.297817 343.208252,23.813580 
	C347.488861,23.813580 351.587433,23.813580 356.457123,23.813580 
	C356.457123,40.317627 356.457123,56.898792 356.456482,73.974899 
z"/>
<path fill="#a6adbb" opacity="1.000000" stroke="none" 
	d="
M171.010345,102.008057 
	C167.013916,101.991875 163.503677,102.148155 160.017502,101.926430 
	C150.441620,101.317345 143.350479,94.223137 142.914032,85.011703 
	C142.424881,74.687782 148.342117,67.194214 158.292480,65.563072 
	C159.440414,65.374886 160.604935,65.181572 161.762604,65.176216 
	C169.245544,65.141579 176.728699,65.158478 184.590271,65.158478 
	C184.590271,69.419960 184.590271,73.456306 184.590271,78.006927 
	C178.327316,78.006927 172.046234,78.005226 165.765167,78.008163 
	C164.265518,78.008865 162.763443,77.973587 161.266708,78.044357 
	C157.727020,78.211739 155.513504,80.102478 155.479324,83.620605 
	C155.444275,87.228271 157.789047,89.051109 161.294083,89.084328 
	C169.291580,89.160126 177.290268,89.104042 185.288483,89.108368 
	C188.942642,89.110344 190.370331,86.738243 190.472015,83.645172 
	C190.674408,77.489342 190.668839,71.319397 190.510040,65.161461 
	C190.400146,60.900364 187.438416,59.579632 183.698898,59.556164 
	C176.200256,59.509109 168.701141,59.535980 161.202225,59.532654 
	C159.569458,59.531929 157.936691,59.532547 156.080643,59.532547 
	C156.080643,55.136749 156.080643,51.221249 156.080643,47.015629 
	C166.732635,47.015629 177.203156,46.576122 187.617416,47.152908 
	C196.146393,47.625282 202.570190,54.853256 202.947556,63.450794 
	C203.254166,70.436005 203.233627,77.448792 203.031830,84.439926 
	C202.749130,94.232666 195.764038,101.361206 186.001663,101.898956 
	C181.182892,102.164391 176.339691,101.985756 171.010345,102.008057 
z"/>
<path fill="#a6adbb" opacity="1.000000" stroke="none" 
	d="
M474.947937,76.966293 
	C476.390228,95.460770 467.139099,103.070999 450.173431,102.055573 
	C444.530609,101.717834 438.849640,102.067978 433.187805,101.986588 
	C421.456299,101.817940 414.154266,94.678322 413.914337,83.063683 
	C413.787109,76.904007 413.780273,70.736076 413.939423,64.577568 
	C414.197052,54.609501 421.254791,47.324497 431.304291,46.960724 
	C439.621490,46.659653 447.960571,46.703045 456.283569,46.885223 
	C467.414948,47.128872 474.458282,54.251762 474.908752,65.483192 
	C475.055481,69.141777 474.942261,72.810783 474.947937,76.966293 
M427.032990,66.896271 
	C427.033264,71.890465 427.185181,76.890602 426.989655,81.877113 
	C426.806824,86.538933 429.024414,88.743637 433.455200,88.801445 
	C440.778687,88.897011 448.104889,88.875870 455.428894,88.802261 
	C459.675903,88.759583 461.794067,86.533028 461.750580,82.221512 
	C461.696899,76.894966 461.785004,71.566864 461.718475,66.240601 
	C461.666138,62.050316 459.768005,59.839821 455.249695,59.950245 
	C448.095642,60.125088 440.932037,60.101452 433.776611,59.957272 
	C429.479004,59.870678 427.161896,61.612339 427.032990,66.896271 
z"/>
<path fill="#a6adbb" opacity="1.000000" stroke="none" 
	d="
M243.838501,88.831131 
	C246.469772,88.735069 248.654587,88.828575 250.773224,88.498024 
	C253.855453,88.017128 255.369476,86.113686 255.087463,82.879654 
	C254.808746,79.683540 253.123154,78.043777 249.927963,78.029877 
	C243.268661,78.000893 236.608810,78.051086 229.949890,77.990662 
	C220.020966,77.900574 213.448242,71.807442 213.297897,62.637161 
	C213.150375,53.639542 219.821442,47.031700 229.584412,46.881947 
	C240.204468,46.719048 250.828964,46.844975 261.712921,46.844975 
	C261.712921,51.253613 261.712921,55.333969 261.712921,60.000797 
	C253.280670,60.000797 244.852722,60.000786 236.424789,60.000809 
	C234.759918,60.000813 233.019287,59.695610 231.450943,60.084724 
	C229.799164,60.494545 228.312027,61.567894 226.752945,62.351326 
	C228.252151,63.178566 229.722595,64.652969 231.255524,64.721062 
	C237.902542,65.016335 244.574982,64.718071 251.224670,64.979271 
	C260.534210,65.344955 266.784088,71.141006 268.108948,80.226051 
	C269.865753,92.273125 262.748993,101.412651 250.529282,101.853256 
	C238.576843,102.284233 226.596680,101.947052 214.313263,101.947052 
	C214.313263,97.718735 214.313263,93.644051 214.313263,88.831146 
	C223.896301,88.831146 233.629379,88.831146 243.838501,88.831131 
z"/>
<path fill="#a6adbb" opacity="1.000000" stroke="none" 
	d="
M319.932617,46.832222 
	C322.399109,46.832218 324.373840,46.832218 326.645599,46.832218 
	C326.645599,51.203529 326.645599,55.282452 326.645599,60.000805 
	C317.807129,60.000805 308.890228,59.999249 299.973328,60.002087 
	C298.142639,60.002666 296.229034,59.700039 294.511414,60.145447 
	C293.429810,60.425919 292.641602,61.837925 291.721771,62.742332 
	C292.844604,63.438511 293.950043,64.702339 295.093140,64.737343 
	C301.744995,64.941025 308.409576,64.716423 315.062531,64.900505 
	C325.772858,65.196838 332.138245,71.149193 333.227722,81.600449 
	C334.407867,92.921051 326.966797,101.554878 315.096954,101.896881 
	C303.299072,102.236809 291.483765,101.971313 279.318054,101.971313 
	C279.318054,97.661331 279.318054,93.470863 279.318054,88.826103 
	C289.841034,88.826103 300.279785,88.857391 310.718262,88.815346 
	C317.942230,88.786247 320.081482,87.499321 320.063843,83.402008 
	C320.045380,79.109673 318.167877,78.005417 310.907013,77.999786 
	C305.081421,77.995262 299.252991,78.094238 293.430939,77.945816 
	C284.700226,77.723228 278.409576,71.315750 278.234650,62.680408 
	C278.064331,54.270844 284.364960,47.302723 292.980194,46.991772 
	C301.790863,46.673759 310.619904,46.864300 319.932617,46.832222 
z"/>
<path fill="#a6adbb" opacity="1.000000" stroke="none" 
	d="
M543.733887,61.524639 
	C544.440491,68.314522 545.218811,74.734268 545.482117,81.175079 
	C545.759338,87.955124 545.544250,94.755310 545.544250,101.776688 
	C541.004028,101.776688 536.903931,101.776688 532.124451,101.776688 
	C532.124451,94.549965 532.129517,87.296410 532.122070,80.042862 
	C532.118835,76.881485 532.219543,73.712967 532.044739,70.560341 
	C531.721375,64.727623 528.239746,60.546535 522.521667,60.252735 
	C514.428955,59.836922 506.298981,60.147312 497.709045,60.147312 
	C497.709045,74.154327 497.709045,87.871674 497.709045,101.795837 
	C493.124084,101.795837 489.016724,101.795837 484.260498,101.795837 
	C484.260498,99.823677 484.260498,97.888069 484.260529,95.952469 
	C484.260712,82.473694 484.222321,68.994751 484.277710,55.516205 
	C484.304474,49.000767 486.457367,46.867039 492.988159,46.834118 
	C502.472626,46.786304 511.962677,46.659145 521.441040,46.913330 
	C531.583496,47.185322 539.202148,51.750126 543.733887,61.524639 
z"/>
<path fill="#a6adbb" opacity="1.000000" stroke="none" 
	d="
M20.805634,75.063538 
	C14.841064,54.866131 22.976387,35.973480 40.806557,27.928827 
	C57.219326,20.523674 77.661934,25.727261 87.655930,41.205151 
	C68.464958,28.486670 51.385437,27.936327 38.400093,46.928162 
	C30.738951,58.133038 32.160526,70.459648 40.313763,81.439102 
	C45.760796,88.774277 53.367977,92.466972 62.535385,93.085686 
	C71.387321,93.683090 78.898331,90.271866 86.086868,85.507393 
	C78.547562,96.310104 68.000038,101.317070 55.277481,100.690224 
	C38.531979,99.865173 27.071527,91.087357 20.805634,75.063538 
z"/>
<path fill="#a6adbb" opacity="1.000000" stroke="none" 
	d="
M133.332458,94.043190 
	C133.332367,96.837471 133.332367,99.144379 133.332367,101.394615 
	C118.752823,103.997017 109.019165,96.239258 108.945358,82.028038 
	C108.845062,62.715477 108.920380,43.402000 108.920380,23.784416 
	C113.278488,23.784416 117.360992,23.784416 121.830956,23.784416 
	C121.909683,25.424158 122.051643,27.024319 122.053276,28.624622 
	C122.069641,44.617683 122.061752,60.610771 122.063049,76.603851 
	C122.063965,87.945023 122.065567,87.945023 133.105148,89.251122 
	C133.178986,90.649033 133.255753,92.102425 133.332458,94.043190 
z"/>
<path fill="#3abff8" opacity="1.000000" stroke="none" 
	d="
M95.423485,37.466362 
	C93.343231,37.713657 90.592155,38.434566 89.844727,37.519287 
	C79.036636,24.283983 65.437088,18.475965 48.412659,21.087675 
	C47.762306,21.187447 47.082474,21.153643 46.422466,21.102877 
	C46.160072,21.082695 45.914272,20.846777 45.650471,20.703398 
	C60.149490,13.012197 82.664627,16.063751 94.988953,29.565744 
	C96.357941,31.065554 95.506248,34.592350 95.423485,37.466362 
z"/>
<path fill="#3abff8" opacity="1.000000" stroke="none" 
	d="
M90.943756,99.996140 
	C76.830780,109.959274 62.062248,110.160080 46.672974,104.099312 
	C48.325958,104.099312 50.000885,103.923492 51.628517,104.126625 
	C67.169006,106.066139 79.644638,100.438713 89.602783,88.726372 
	C91.309006,86.719582 92.705933,84.409569 95.547562,86.806915 
	C98.169144,89.018623 98.918053,91.929222 96.748947,94.753571 
	C95.256905,96.696342 93.100098,98.128578 90.943756,99.996140 
z"/>
<path fill="transparent" opacity="1.000000" stroke="none" 
	d="
M427.034607,66.445511 
	C427.161896,61.612339 429.479004,59.870678 433.776611,59.957272 
	C440.932037,60.101452 448.095642,60.125088 455.249695,59.950245 
	C459.768005,59.839821 461.666138,62.050316 461.718475,66.240601 
	C461.785004,71.566864 461.696899,76.894966 461.750580,82.221512 
	C461.794067,86.533028 459.675903,88.759583 455.428894,88.802261 
	C448.104889,88.875870 440.778687,88.897011 433.455200,88.801445 
	C429.024414,88.743637 426.806824,86.538933 426.989655,81.877113 
	C427.185181,76.890602 427.033264,71.890465 427.034607,66.445511 
z"/>
</svg>