<svg xmlns="http://www.w3.org/2000/svg" viewBox="0 0 100 76.01" style="enable-background:new 0 0 100 76.01" xml:space="preserve"><path  d="M31.84 42.29c.62 0 1.13-.51 1.13-1.13v-8.74h5.36v8.72c0 3.58-2.9 6.48-6.48 6.48h-8.07a6.472 6.472 0 0 0 3.75-5.33h4.31zm47.53-15.25h-5.36v14.1c.01.62-.48 1.14-1.1 1.15h-9.6l5.35-.62V27.04h-5.35v20.58h9.58c3.58 0 6.48-2.9 6.48-6.48V32.4l.58-5.36L100 20.96v5.6l-4.62 1.4c-1.71-.99-3.67-1.47-5.65-1.37l-9.77.45h9.78c5.68 0 10.29 4.61 10.29 10.29 0 5.68-4.61 10.29-10.29 10.29H76.03a6.497 6.497 0 0 0 3.24-5.33h10.47c2.73 0 4.93-2.21 4.93-4.93 0-2.73-2.21-4.93-4.93-4.93H79.37v-5.39zm-65.78 5.34h5.35v-5.34h-5.35v5.34zm-3.33 9.87c-2.73 0-4.93-2.21-4.93-4.93 0-2.73 2.21-4.93 4.93-4.93v-5.34c-5.68 0-10.29 4.61-10.29 10.29 0 5.68 4.61 10.29 10.29 10.29h10.87c3.58 0 6.48-2.9 6.48-6.48v-8.72h-5.35v8.72c.01.62-.48 1.14-1.11 1.15h-.02l-10.87-.05zm22.71 12.8h5.35v-5.34h-5.35v5.34zm28.18-22.63H55.8v8.72c-.08.62-.64 1.06-1.26.98-.51-.06-.91-.47-.98-.98v-8.71h-5.37v8.72c-.08.62-.64 1.06-1.26.98-.51-.06-.91-.47-.98-.98v-8.72H40.6v8.72c-.02.62-.55 1.11-1.17 1.09a1.13 1.13 0 0 1-1.07-.93c.12 2.05-.74 4.03-2.31 5.35a6.48 6.48 0 0 0 7.24-.25 6.5 6.5 0 0 0 7.63 0c2.9 2.1 6.96 1.45 9.06-1.45.8-1.1 1.23-2.43 1.23-3.8l-.06-8.74z" style="fillRule:evenodd;clip-rule:evenodd;fill:#a6adbb"/></svg>