<svg width="236" height="196" viewBox="0 0 236 196" fill="none" xmlns="http://www.w3.org/2000/svg">
<path d="M54.6294 148.891L68.5061 70.35C69.8494 62.747 76.4546 57.2061 84.1757 57.2061H136.885C144.442 57.2061 150.952 62.5197 152.475 69.9164L168.689 148.886H54.6294V148.891Z" fill="#6E7591"/>
<path d="M121.37 63.4518C128.927 63.4518 135.437 68.7654 136.96 76.1621L151.89 148.893H168.685L152.471 69.9233C150.953 62.5212 144.438 57.2129 136.881 57.2129H84.1716C79.0736 57.2129 74.4674 59.6291 71.5323 63.4518H121.37Z" fill="#5C647B"/>
<path d="M140.952 69.7227H80.7384C79.8235 69.7227 79.0779 68.9825 79.0779 68.0625C79.0779 67.1478 79.8182 66.4023 80.7384 66.4023H140.957C141.872 66.4023 142.618 67.1425 142.618 68.0625C142.613 68.9772 141.872 69.7227 140.952 69.7227Z" fill="#5C647B"/>
<g opacity="0.39">
<path d="M46.3306 143.365H69.6101H69.9591L157.149 143.37L171.972 104.811C178.213 88.5795 173.3 75.3774 160.639 70.6242L161.792 67.5259C165.928 64.5968 169.423 60.6526 171.311 56.4017C172.84 56.2537 174.886 55.265 176.721 53.6524C179.492 51.2203 180.74 48.3123 179.508 47.1492C178.826 46.5041 177.52 46.5359 176.023 47.1069L176.055 47.091L179.572 38.7954L181.856 33.5928C182.93 31.1555 181.507 29.379 178.863 29.8548L176.393 30.2989L158.016 21.1733C154.642 19.4972 148.518 24.1499 149.2 27.888C149.608 30.1139 150.443 32.2816 151.987 33.9471C150.824 34.8565 149.814 35.9879 149.153 37.2304L143.907 47.1016L143.928 47.1174C142.976 46.5464 141.702 46.5147 140.401 47.1597C138.063 48.3229 136.524 51.2309 136.974 53.663C137.27 55.2756 138.37 56.2695 139.755 56.4123C137.582 60.6632 137.307 64.6074 138.645 67.5365L136.974 70.4022C128.237 72.6704 119.379 77.1433 111.521 83.1178C107.084 82.2402 100.865 84.6987 96.4963 89.399L46.3306 143.365ZM144.34 47.4135L144.779 47.736L144.732 47.8206C144.61 47.6673 144.483 47.5351 144.34 47.4135ZM175.325 47.4135C175.066 47.5351 174.807 47.6726 174.548 47.8206L174.579 47.736L175.325 47.4135Z" fill="#261F31"/>
<path d="M173.326 82.9326C177.477 82.9643 180.317 85.3541 180.211 89.3935L178.799 143.37H174.436L175.875 88.2885C175.943 85.8776 174.981 84.0482 173.326 82.9326Z" fill="#261F31"/>
</g>
<path d="M137.614 89.348C137.08 89.6124 136.81 90.2257 136.974 90.7967L153.283 148.892H176.806L152.533 94.6775C149.978 88.9832 143.199 86.5564 137.614 89.348Z" fill="#899CBD"/>
<path d="M122.796 54.5634C121.194 57.0061 121.337 59.9299 123.114 61.0931C124.891 62.2563 127.63 61.2253 129.232 58.7826C130.835 56.3399 130.692 53.4161 128.915 52.2529C127.138 51.0845 124.399 52.1208 122.796 54.5634Z" fill="#E48976"/>
<path d="M128.308 53.1848C129.196 53.7664 129.651 54.808 129.667 56.0029C129.963 54.6176 129.609 53.317 128.636 52.6772C127.663 52.0375 126.325 52.2384 125.172 53.0579C126.282 52.5979 127.419 52.5979 128.308 53.1848Z" fill="#FEB290"/>
<path d="M153.628 148.892H66.4753L70.0609 110.164C71.9594 89.6281 89.1943 73.9199 109.819 73.9199C130.264 73.9199 147.404 89.3585 149.53 109.688L153.628 148.892Z" fill="#899CBD"/>
<path d="M93.8005 179.579L96.3601 146.291C97.0265 137.599 100.353 129.573 105.715 123.694C111.078 117.814 118.027 114.573 125.288 114.573C132.48 114.573 139.386 117.761 144.728 123.551C150.074 129.34 153.427 137.271 154.173 145.873L157.103 179.574H93.8005V179.579Z" fill="#606685"/>
<path d="M103.262 81.0466C123.707 81.0466 140.847 96.4852 142.973 116.814L146.325 148.897H153.629L149.53 109.693C147.404 89.3634 130.265 73.9248 109.82 73.9248C96.5299 73.9248 84.6522 80.4439 77.3754 90.5741C84.3666 84.6155 93.4309 81.0466 103.262 81.0466Z" fill="#606685"/>
<path d="M120.319 94.3102C126.325 88.3059 126.325 78.571 120.319 72.5667C114.314 66.5624 104.576 66.5624 98.5708 72.5667C92.5651 78.571 92.5651 88.3059 98.5708 94.3102C104.576 100.315 114.314 100.315 120.319 94.3102Z" fill="#606685"/>
<path d="M95.7775 61.0982C97.5553 59.9322 97.6978 57.0078 96.0958 54.5663C94.4938 52.1249 91.7539 51.091 89.9761 52.257C88.1984 53.4229 88.0559 56.3473 89.6579 58.7888C91.2599 61.2302 93.9997 62.2642 95.7775 61.0982Z" fill="#FEB290"/>
<path d="M95.9582 56.4042C96.799 57.6837 96.725 59.2223 95.7889 59.8356C94.8529 60.4489 93.4145 59.9043 92.5736 58.6248C91.7328 57.3453 91.8068 55.8068 92.7428 55.1935C93.6789 54.5801 95.1173 55.1194 95.9582 56.4042Z" fill="#E48976"/>
<path d="M126.711 58.8141C125.722 59.9879 124.23 60.3527 123.374 59.6336C122.522 58.9146 122.628 57.3813 123.617 56.2075C124.606 55.0338 126.097 54.669 126.954 55.388C127.811 56.1071 127.7 57.6404 126.711 58.8141Z" fill="#FEB290"/>
<path d="M90.6533 53.4372C91.5312 52.8397 92.6735 52.8186 93.7788 53.2627C92.6153 52.459 91.2774 52.2793 90.3096 52.9349C89.3471 53.5852 89.0139 54.8964 89.3312 56.2764C89.3312 55.0815 89.7702 54.0293 90.6533 53.4372Z" fill="#FFC7A4"/>
<path d="M119.894 62.374H109.455H99.0158L96.9533 82.1957C96.1812 89.6136 101.998 96.0639 109.455 96.0639C116.912 96.0639 122.729 89.6083 121.957 82.1957L119.894 62.374Z" fill="#FEB290"/>
<path d="M106.138 88.7298C104.012 88.7298 102.056 87.8575 100.628 86.2766C99.2051 84.6957 98.5388 82.6602 98.7609 80.5453L100.252 66.2012H112.024L113.516 80.5453C113.738 82.6602 113.071 84.6957 111.649 86.2766C110.226 87.8575 108.269 88.7298 106.138 88.7298Z" fill="#FFC7A4"/>
<path d="M121.955 82.1957L119.892 62.374H114.62L116.296 78.5052C117.068 85.9231 111.251 92.3735 103.794 92.3735C102.472 92.3735 101.198 92.1673 100.002 91.7919C102.298 94.3985 105.661 96.0639 109.448 96.0639C116.904 96.0639 122.727 89.6136 121.955 82.1957Z" fill="#E48976"/>
<path d="M124.076 50.8111C123.304 43.3138 116.99 37.6143 109.454 37.6143C101.918 37.6143 95.5985 43.3138 94.8317 50.8111L93.9168 59.7147C92.4942 69.2104 99.8504 77.7545 109.454 77.7545C119.058 77.7545 126.419 69.2157 124.991 59.7147L124.076 50.8111Z" fill="#FEB290"/>
<path d="M116.138 50.8469C116.181 46.062 112.6 42.0226 107.846 41.4886C103.092 40.9546 98.7025 44.1057 97.6871 48.7796L96.4814 54.3311C94.9107 60.221 98.9458 66.1321 105.006 66.8089C111.067 67.4909 116.313 62.6214 116.085 56.5306L116.138 50.8469Z" fill="#FFC7A4"/>
<path d="M124.986 59.709L124.071 50.8054C123.511 45.3438 120.005 40.8391 115.229 38.793C116.16 40.4796 116.773 42.3724 116.985 44.3974L117.9 53.301C119.322 62.7968 111.966 71.3408 102.363 71.3408C100.036 71.3408 97.841 70.8386 95.8684 69.945C98.5708 74.5766 103.595 77.7489 109.449 77.7489C119.058 77.7489 126.414 69.2101 124.986 59.709Z" fill="#E48976"/>
<path d="M107.122 59.2668H112.982C113.981 59.2668 114.473 58.056 113.764 57.3581L112.601 56.2161C111.083 54.7251 108.624 54.8044 107.207 56.3906L106.292 57.411C105.652 58.1301 106.16 59.2668 107.122 59.2668Z" fill="#E48976"/>
<path d="M117.52 63.1248L119.556 61.4646C109.344 65.1075 100.862 60.5605 100.862 60.5605C100.862 60.5605 100.941 62.3635 101.613 64.4731C101.703 63.3257 102.332 62.7441 102.332 62.7441C102.332 62.7441 102.332 62.7442 107.197 64.14C111.169 65.2767 115.87 64.3832 117.462 64.0131C117.52 63.4738 117.52 63.1248 117.52 63.1248Z" fill="#E8E0DF"/>
<path d="M107.19 64.1429C102.325 62.7471 102.325 62.7471 102.325 62.7471C102.325 62.7471 101.695 63.3287 101.605 64.476C102.552 67.4527 104.683 71.0427 109.448 71.0427C115.889 71.0427 117.19 66.0886 117.45 64.0213C115.863 64.3861 111.162 65.2796 107.19 64.1429Z" fill="white"/>
<path d="M99.0468 59.8818C99.253 59.9611 99.4593 60.0457 99.6655 60.1198C99.8717 60.1991 100.078 60.2731 100.284 60.3418L100.908 60.5586C101.12 60.6273 101.326 60.6961 101.538 60.7595C102.373 61.0291 103.219 61.2618 104.065 61.4733C105.763 61.8962 107.482 62.2135 109.216 62.3774C109.65 62.425 110.084 62.4461 110.517 62.4778C110.951 62.4937 111.385 62.5149 111.824 62.5096C112.257 62.5201 112.691 62.4937 113.13 62.4884L113.78 62.4461C113.891 62.4408 113.997 62.4355 114.108 62.425L114.431 62.3932C116.165 62.2293 117.879 61.8381 119.555 61.2777C117.984 62.0919 116.266 62.6365 114.499 62.9061L114.166 62.959C114.055 62.9748 113.944 62.9854 113.833 63.0013L113.167 63.0753C112.723 63.107 112.273 63.1387 111.829 63.144C111.385 63.1599 110.935 63.144 110.491 63.1334C110.047 63.107 109.597 63.0859 109.158 63.0383C107.381 62.8691 105.631 62.499 103.933 61.9756C103.082 61.7165 102.252 61.4045 101.432 61.0662C101.025 60.8917 100.617 60.7119 100.221 60.5163C99.8189 60.3154 99.4222 60.1145 99.0468 59.8818Z" fill="#E48976"/>
<path d="M107.894 71.8682C107.894 71.8682 109.877 72.4709 112.167 71.8682C112.167 71.8682 111.262 73.2481 109.702 73.2481C108.142 73.2481 107.894 71.8682 107.894 71.8682Z" fill="#FEB290"/>
<path d="M98.1838 49.9427C99.2151 49.3241 102.33 47.8437 106.624 49.3136C107.015 49.4457 107.275 49.8211 107.248 50.2335L107.222 50.7623C107.19 51.328 106.666 51.7298 106.111 51.6135C104.498 51.2645 101.336 50.7781 98.956 51.6188C98.3266 51.8408 97.6762 51.3386 97.7343 50.6724C97.7343 50.6671 97.7343 50.6565 97.7343 50.6512C97.7661 50.3604 97.93 50.0961 98.1838 49.9427Z" fill="#514561"/>
<path d="M120.916 49.9427C119.885 49.3241 116.77 47.8437 112.476 49.3136C112.085 49.4457 111.825 49.8211 111.852 50.2335L111.878 50.7623C111.91 51.328 112.434 51.7298 112.989 51.6135C114.602 51.2645 117.764 50.7781 120.144 51.6188C120.773 51.8408 121.424 51.3386 121.366 50.6724C121.366 50.6671 121.366 50.6565 121.366 50.6512C121.334 50.3604 121.17 50.0961 120.916 49.9427Z" fill="#514561"/>
<path d="M104.335 53.2642L101.093 52.8359C101.093 52.8359 101.638 54.9508 102.844 54.9508C104.05 54.9508 104.335 53.2642 104.335 53.2642Z" fill="#FEB290"/>
<path d="M101.358 52.8359C101.358 52.8359 101.823 54.3111 103.251 54.3111C104.684 54.3111 105.012 53.0686 105.012 53.0686L101.358 52.8359Z" fill="#514561"/>
<path d="M100.394 52.8779L105.714 53.1581C105.714 53.1581 104.82 51.7676 102.842 51.7676C100.864 51.7676 100.394 52.8779 100.394 52.8779Z" fill="#E48976"/>
<path d="M115.479 53.2642L118.72 52.8359C118.72 52.8359 118.176 54.9508 116.97 54.9508C115.764 54.9508 115.479 53.2642 115.479 53.2642Z" fill="#FEB290"/>
<path d="M118.454 52.8359C118.454 52.8359 117.989 54.3111 116.561 54.3111C115.128 54.3111 114.8 53.0686 114.8 53.0686L118.454 52.8359Z" fill="#514561"/>
<path d="M119.422 52.8759L114.102 53.1562C114.102 53.1562 114.996 51.7656 116.974 51.7656C118.946 51.7656 119.422 52.8759 119.422 52.8759Z" fill="#E48976"/>
<path d="M104.994 53.1191C104.994 53.1191 104.397 55.8685 100.7 55.4349C100.7 55.4349 104.899 56.4712 105.354 53.135L104.994 53.1191Z" fill="#E48976"/>
<path d="M114.636 53.1191C114.636 53.1191 115.234 55.8685 118.93 55.4349C118.93 55.4349 114.731 56.4712 114.277 53.135L114.636 53.1191Z" fill="#E48976"/>
<path d="M84.1006 89.348C84.6348 89.6124 84.9045 90.2257 84.7405 90.7967L68.4311 148.892H44.9083L69.1821 94.6775C71.7364 88.9832 78.5214 86.5564 84.1006 89.348Z" fill="#899CBD"/>
<path d="M79.1197 88.1904C74.9736 88.2222 71.0073 90.6225 69.1934 94.6778L44.9197 148.893H49.2615L74.0323 93.5622C75.1111 91.146 76.9409 89.3113 79.1197 88.1904Z" fill="#A5BACD"/>
<path d="M92.3251 86.3818C84.3238 91.5844 78.7445 100.266 77.8085 110.407L74.921 148.892H85.6247L88.5122 102.164C88.9353 96.4645 90.2679 91.1244 92.3251 86.3818Z" fill="#A5BACD"/>
<path d="M124.922 42.2865C124.758 39.2147 122.22 36.8037 119.137 36.8037H109.443H99.7496C96.6718 36.8037 94.1281 39.2147 93.9641 42.2865L93.4353 52.2L94.604 52.8397L98.4275 47.8804C99.4271 46.585 99.8343 44.9354 99.554 43.3228L99.2684 41.6943L109.433 44.6605L119.597 41.6943L119.311 43.3228C119.031 44.9301 119.438 46.585 120.438 47.8804L124.261 52.8397L125.43 52.2L124.922 42.2865Z" fill="#514561"/>
<path d="M93.8903 43.8681L94.0912 38.6443C94.1864 36.1964 96.4446 34.4093 98.8508 34.8904L101.098 35.3346L123.743 26.1613C127.9 24.48 131.782 29.1538 129.328 32.9077C125.61 38.5915 119.338 43.8892 109.306 41.436C97.3859 39.0091 93.8903 43.8681 93.8903 43.8681Z" fill="#514561"/>
<path d="M112.61 40.3152C116.772 40.0614 123.986 38.7396 127.592 32.9237C127.815 32.5642 127.407 32.1518 127.042 32.3633C124.261 33.9759 117.428 37.7985 112.452 39.5327C112.008 39.6807 112.14 40.3416 112.61 40.3152Z" fill="#826D84"/>
<path d="M167.092 109.641L164.03 103.514L162.502 100.447C162.37 100.193 162.259 99.9341 162.127 99.6803L161.926 99.3049L161.709 98.9401C161.413 98.459 161.09 97.9884 160.73 97.5496C159.303 95.7837 157.388 94.4302 155.267 93.6477C153.147 92.8652 150.815 92.6642 148.599 93.0766C148.541 93.0872 148.482 93.0661 148.451 93.0238C145.764 89.8197 142.655 86.9752 139.212 84.6013C137.493 83.4117 135.695 82.3437 133.834 81.3973C131.972 80.4509 130.047 79.6314 128.075 78.944C128.016 78.9229 127.974 78.8859 127.948 78.8383C127.318 77.6751 126.557 76.5859 125.689 75.5972C125.658 75.5602 125.637 75.5126 125.631 75.4651L125.557 74.7671C125.552 74.6984 125.573 74.6297 125.621 74.5821C127.207 72.8638 128.461 70.8335 129.28 68.6446C130.105 66.4557 130.486 64.1029 130.412 61.766C130.407 61.6338 130.507 61.5228 130.634 61.5069H130.639C131.364 61.4276 132.073 61.1685 132.712 60.7984C133.03 60.6081 133.337 60.3966 133.627 60.1587C133.913 59.9208 134.183 59.6617 134.436 59.3815C135.431 58.2659 136.145 56.8753 136.372 55.4055C136.483 54.6706 136.478 53.9198 136.293 53.2113C136.198 52.8571 136.065 52.5187 135.886 52.2068C135.7 51.9001 135.473 51.6146 135.198 51.3872C134.923 51.1599 134.616 50.9748 134.278 50.848C133.945 50.7263 133.585 50.6576 133.225 50.647C132.501 50.6206 131.766 50.8057 131.1 51.1176C130.973 51.1758 130.825 51.1229 130.766 50.996C130.708 50.8744 130.761 50.7316 130.872 50.6735L130.888 50.6629L130.756 50.8955L130.343 43.0494L130.243 41.0878L130.19 40.1097L130.163 39.618L130.153 39.3748L130.137 39.1369C130.031 37.8785 129.545 36.6519 128.757 35.6632C128.677 35.5627 128.693 35.42 128.794 35.3407C128.799 35.3407 128.799 35.3354 128.804 35.3354C130.534 34.0929 132.078 32.5966 133.426 30.9365C134.103 30.1117 134.733 29.2446 135.325 28.351C135.611 27.9122 135.838 27.4469 135.986 26.9499C136.139 26.4582 136.208 25.9401 136.198 25.4219C136.176 24.3856 135.811 23.3652 135.198 22.5246C134.585 21.6839 133.728 21.023 132.75 20.6635C132.263 20.4837 131.745 20.3832 131.226 20.3621C130.708 20.3462 130.185 20.4097 129.682 20.5524C129.619 20.5683 129.555 20.5842 129.492 20.6053L129.307 20.6688C129.185 20.711 129.058 20.7533 128.937 20.8062L128.186 21.1076L126.689 21.705L114.695 26.4899L108.698 28.8797L102.696 31.259L108.661 28.7899L114.631 26.3313L126.578 21.4195L128.069 20.8062L128.815 20.4996C128.937 20.4467 129.069 20.3991 129.196 20.3515L129.391 20.2828C129.455 20.2616 129.524 20.2458 129.592 20.2246C130.126 20.0713 130.682 19.992 131.237 20.0079C131.792 20.0237 132.348 20.1295 132.871 20.3145C133.918 20.6899 134.844 21.3931 135.505 22.2866C136.166 23.1802 136.568 24.2746 136.599 25.3955C136.615 25.9559 136.541 26.5164 136.383 27.0504C136.224 27.5844 135.981 28.0972 135.679 28.5625C135.087 29.4666 134.458 30.3496 133.77 31.1902C132.411 32.8768 130.846 34.4101 129.079 35.6843L129.127 35.3565C129.55 35.8853 129.894 36.4774 130.148 37.1066C130.401 37.7358 130.56 38.4019 130.624 39.0734L130.645 39.3272L130.661 39.5704L130.687 40.0621L130.74 41.0402L130.846 43.0018L131.269 50.8427C131.274 50.9431 131.221 51.033 131.137 51.0753L131.121 51.0859L130.893 50.6418C131.618 50.3034 132.427 50.0919 133.247 50.1236C133.654 50.1395 134.066 50.2082 134.458 50.3563C134.849 50.5043 135.209 50.7158 135.526 50.9801C135.843 51.2445 136.108 51.5776 136.319 51.9265C136.531 52.2808 136.679 52.6667 136.785 53.058C136.991 53.8458 136.996 54.6706 136.874 55.4584C136.753 56.2515 136.499 57.0181 136.15 57.7319C135.796 58.4456 135.346 59.1065 134.817 59.6987C134.553 59.9948 134.262 60.2697 133.955 60.5235C133.649 60.7773 133.315 61.0046 132.972 61.2055C132.628 61.4117 132.258 61.5756 131.877 61.7078C131.496 61.84 131.1 61.9352 130.692 61.9775L130.92 61.7184C130.957 62.9186 130.877 64.1241 130.682 65.3137C130.486 66.498 130.174 67.6665 129.751 68.7926C129.328 69.9188 128.794 71.0027 128.159 72.0231C127.525 73.0435 126.789 74.0005 125.975 74.8835L126.039 74.6984L126.107 75.3963L126.049 75.2641C126.938 76.2846 127.715 77.4054 128.355 78.6003L128.228 78.4946C130.216 79.1925 132.157 80.0279 134.035 80.9902C135.912 81.9524 137.715 83.0469 139.445 84.2523C141.169 85.4631 142.813 86.7849 144.363 88.2177C145.912 89.6453 147.356 91.1838 148.694 92.807L148.546 92.7541C150.825 92.347 153.205 92.5744 155.363 93.3939C157.52 94.2134 159.451 95.6145 160.873 97.4227C161.233 97.8721 161.555 98.3532 161.846 98.8449L162.063 99.2204L162.264 99.601C162.396 99.8548 162.507 100.119 162.634 100.378L164.126 103.461L167.092 109.641Z" fill="#899CBD"/>
<path d="M79.6973 139.177C82.4559 127.498 75.2217 115.794 63.5393 113.036C51.8569 110.278 40.1503 117.51 37.3917 129.19C34.6332 140.87 41.8674 152.574 53.5498 155.332C65.2321 158.089 76.9388 150.857 79.6973 139.177Z" fill="#606685"/>
<path d="M182.519 143.018C185.278 131.338 178.044 119.634 166.361 116.876C154.679 114.119 142.972 121.351 140.214 133.031C137.455 144.71 144.689 156.414 156.372 159.172C168.054 161.93 179.761 154.698 182.519 143.018Z" fill="#606685"/>
<path d="M86.7348 111.332C86.2589 111.025 85.7565 110.761 85.2329 110.534C84.2704 110.121 83.2392 109.852 82.1868 109.735C82.8849 107.811 83.4666 105.839 83.9479 103.84C84.2017 102.799 84.4132 101.752 84.6036 100.7C84.6935 100.171 84.7887 99.6475 84.8628 99.1135C84.8945 98.8386 84.9368 98.5689 84.9527 98.294L84.9791 97.8816L84.9844 97.4692C84.995 97.1942 84.9791 96.9193 84.9685 96.6444C84.9685 96.5069 84.9527 96.3694 84.9368 96.232L84.8998 95.8196C84.8257 95.275 84.7358 94.7251 84.593 94.1911C84.318 93.1178 83.9108 92.0762 83.3661 91.1087C82.8214 90.1411 82.1604 89.237 81.383 88.4334C80.6056 87.635 79.733 86.9318 78.7811 86.3502C77.8292 85.7687 76.7927 85.3192 75.7244 84.9967C74.6562 84.6689 73.535 84.505 72.4139 84.468C70.1769 84.394 67.9081 84.9016 65.925 85.959L65.7399 86.0542L65.5548 86.1599L65.1899 86.3714L64.8356 86.5987L64.6611 86.7151L64.4919 86.8367L64.1481 87.0852L63.8149 87.3442L63.651 87.4764C63.5981 87.524 63.5452 87.5663 63.4924 87.6139L63.175 87.8941C62.3553 88.6607 61.615 89.5173 61.0068 90.469C60.8481 90.7016 60.7159 90.9501 60.5679 91.1933L60.3722 91.5687C60.3405 91.6321 60.3034 91.6903 60.277 91.7537L60.1871 91.9441C59.9438 92.4516 59.7376 92.9751 59.5631 93.5144L59.4361 93.9162L59.3304 94.3233C59.2934 94.4608 59.2616 94.5982 59.2352 94.7357C59.2087 94.8732 59.1717 95.0106 59.1506 95.1481C59.103 95.4072 59.066 95.661 59.0342 95.92C58.3044 95.7403 57.5588 95.6345 56.8078 95.6028C55.7554 95.5658 54.6978 95.6768 53.6718 95.9306C53.1588 96.0575 52.6617 96.2267 52.1752 96.4223C51.6886 96.6232 51.218 96.8506 50.7632 97.1149C49.8589 97.6384 49.0286 98.294 48.3094 99.05L47.6483 99.6634C46.5589 98.8597 45.3267 98.257 44.0311 97.8922C43.9412 97.8657 43.846 97.8446 43.7508 97.8181C43.6556 97.797 43.5657 97.7706 43.4705 97.7494C43.2801 97.7071 43.095 97.6648 42.9046 97.6384C42.5239 97.5696 42.1378 97.5273 41.7518 97.4956C41.5561 97.485 41.3657 97.4692 41.17 97.4745C41.0748 97.4745 40.9744 97.4692 40.8792 97.4745L40.5883 97.4798C40.2023 97.4956 39.8162 97.5326 39.4354 97.5855C37.9071 97.8075 36.4369 98.3521 35.136 99.1664C33.8562 99.97 32.7456 101.038 31.9048 102.286C31.2543 102.815 30.6144 103.359 29.9957 103.92C29.3558 104.501 28.737 105.104 28.1289 105.722C27.5207 106.336 26.9443 106.976 26.3784 107.631C25.8125 108.281 25.2678 108.953 24.7443 109.635C24.2154 110.317 23.713 111.015 23.2265 111.723L23.0467 111.993C22.9885 112.083 22.9251 112.173 22.8669 112.263L22.6924 112.538L22.5284 112.823C22.3169 113.204 22.1212 113.595 21.9626 113.997C21.3015 115.604 21.0477 117.365 21.2328 119.067C21.2222 118.639 21.2275 118.211 21.2645 117.788C21.2698 117.682 21.2857 117.576 21.2962 117.471C21.3068 117.365 21.3174 117.259 21.3386 117.153L21.3862 116.836L21.4496 116.524C21.4708 116.418 21.4919 116.318 21.5184 116.212C21.5448 116.112 21.566 116.006 21.5977 115.906C21.6559 115.699 21.714 115.498 21.7828 115.298C21.8462 115.097 21.9256 114.901 21.9996 114.7C22.0842 114.504 22.1583 114.309 22.2534 114.118C22.4333 113.738 22.6395 113.368 22.8616 113.013L23.0308 112.749L23.2106 112.49C23.2688 112.405 23.3323 112.321 23.401 112.236L23.5967 111.982C24.1097 111.306 24.6385 110.634 25.1885 109.984C26.2832 108.683 27.4572 107.446 28.6841 106.278C29.9163 105.109 31.212 104.015 32.5605 102.994L32.6134 102.952L32.661 102.883C33.4701 101.752 34.5119 100.795 35.7071 100.092C36.9023 99.3884 38.2297 98.9284 39.5994 98.7645C40.9638 98.5953 42.3599 98.7222 43.6714 99.1188C44.3272 99.3197 44.9671 99.5788 45.5647 99.9119C45.8661 100.07 46.157 100.256 46.4373 100.446C46.7176 100.636 46.982 100.858 47.2517 101.07L47.7171 101.435L48.1507 101.038L49.2401 100.049L49.2613 100.028L49.2771 100.012C49.9223 99.3514 50.6574 98.7857 51.456 98.331C51.8526 98.1036 52.2704 97.9027 52.6987 97.7335C53.1271 97.5643 53.566 97.4216 54.0103 97.3159C54.904 97.0991 55.8242 97.0092 56.7444 97.0462C57.6592 97.0832 58.5741 97.2524 59.4467 97.5432L60.351 97.8446L60.4039 96.8929C60.5203 94.8943 61.1549 92.9328 62.2337 91.2515C62.7678 90.4055 63.4236 89.6389 64.1587 88.9568L64.439 88.7083C64.4866 88.666 64.5342 88.6237 64.5818 88.5814L64.7298 88.4651L65.0207 88.2272L65.3221 88.0051L65.4755 87.8941L65.6341 87.7936L65.9462 87.5874L66.2688 87.3971L66.4327 87.3019L66.5966 87.2121L66.9298 87.0376L67.2683 86.879L67.4375 86.7997L67.612 86.7309L67.961 86.5882L68.3154 86.4613C68.3735 86.4401 68.4317 86.419 68.4952 86.3978L68.675 86.345L69.0346 86.2392L69.3995 86.1493C69.4577 86.1335 69.5211 86.1176 69.5846 86.1017L69.7697 86.0647L70.1399 85.9907L70.51 85.9326L70.6951 85.9061L70.8802 85.885L71.2557 85.848L71.6312 85.8268C71.8797 85.811 72.1336 85.811 72.3821 85.8162C74.3917 85.848 76.3907 86.4084 78.1359 87.4235C79.0032 87.9364 79.8123 88.555 80.5368 89.2635C81.2561 89.9772 81.8801 90.7862 82.3984 91.6586C82.9219 92.531 83.3185 93.4721 83.5988 94.4502C83.7469 94.9366 83.8421 95.4389 83.9267 95.9412L83.9743 96.3219C83.9902 96.4488 84.0113 96.5756 84.0166 96.7025C84.0325 96.9563 84.0589 97.2101 84.0589 97.4692L84.0642 97.8551L84.0483 98.2411C84.0483 98.4949 84.0113 98.754 83.9902 99.0077C83.9796 99.1346 83.9584 99.2668 83.9479 99.399L83.9003 99.7902L83.7945 100.573C83.6464 101.62 83.4666 102.656 83.2709 103.697C83.07 104.734 82.8426 105.765 82.5834 106.79C82.3243 107.816 82.0335 108.831 81.7267 109.846L81.6474 110.106L81.9065 110.111C83.0118 110.143 84.1118 110.359 85.1589 110.74C86.2113 111.115 87.2002 111.665 88.0887 112.358C87.6656 111.977 87.2108 111.634 86.7348 111.332Z" fill="#899CBD"/>
<path d="M223.504 166.068C222.176 165.37 220.859 164.667 219.548 163.953C219.32 163.832 219.098 163.705 218.876 163.583C217.866 163.033 216.867 162.478 215.867 161.923C215.465 161.701 215.063 161.474 214.667 161.246C213.826 160.77 212.985 160.295 212.155 159.819C211.747 159.586 211.34 159.353 210.938 159.116C210.018 158.582 209.103 158.042 208.194 157.503C207.908 157.334 207.622 157.17 207.342 157.001C206.158 156.297 204.984 155.584 203.815 154.865C203.54 154.695 203.265 154.521 202.99 154.352C202.091 153.797 201.192 153.241 200.303 152.676C199.912 152.427 199.521 152.184 199.135 151.936C198.336 151.428 197.543 150.915 196.75 150.402C196.369 150.154 195.988 149.911 195.613 149.662C194.507 148.938 193.407 148.213 192.313 147.484C191.139 147.759 189.97 148.023 188.796 148.282C187.347 148.605 185.898 148.922 184.443 149.223C184.295 149.255 184.147 149.287 183.999 149.313C182.513 149.625 181.022 149.926 179.536 150.217C179.435 150.238 179.34 150.254 179.24 150.275C177.695 150.577 176.151 150.868 174.607 151.142C174.586 151.148 174.559 151.153 174.538 151.153C172.983 151.433 171.423 151.703 169.869 151.962C169.8 151.973 169.736 151.983 169.668 151.994C168.15 152.247 166.627 152.485 165.109 152.718C164.982 152.739 164.855 152.76 164.728 152.776C163.253 152.998 161.772 153.215 160.291 153.416C160.122 153.437 159.953 153.464 159.784 153.485C158.335 153.686 156.88 153.871 155.431 154.05C155.236 154.077 155.035 154.098 154.839 154.124C153.406 154.299 151.973 154.468 150.534 154.627C150.323 154.648 150.106 154.674 149.894 154.695C148.472 154.849 147.044 154.997 145.616 155.134C145.394 155.155 145.172 155.177 144.95 155.198C143.527 155.33 142.105 155.457 140.677 155.573C140.455 155.589 140.232 155.61 140.016 155.626C138.588 155.742 137.155 155.848 135.721 155.943C135.51 155.959 135.298 155.97 135.092 155.986C133.648 156.081 132.205 156.171 130.761 156.245C130.571 156.255 130.375 156.266 130.185 156.276C128.72 156.35 127.249 156.419 125.785 156.477C125.626 156.482 125.462 156.488 125.303 156.493C123.801 156.551 122.305 156.599 120.803 156.636C120.687 156.641 120.576 156.641 120.459 156.641C118.91 156.678 117.36 156.71 115.811 156.726C115.763 156.726 115.715 156.726 115.668 156.726C114.092 156.742 112.516 156.752 110.94 156.747C110.898 156.747 110.855 156.747 110.813 156.747C109.258 156.742 107.709 156.726 106.154 156.705C106.043 156.705 105.932 156.699 105.821 156.699C104.319 156.673 102.812 156.636 101.31 156.594C101.151 156.588 100.993 156.583 100.834 156.578C99.3637 156.53 97.8936 156.477 96.4287 156.414C96.2383 156.403 96.0479 156.398 95.8575 156.387C94.4138 156.324 92.9648 156.25 91.5211 156.165C91.3095 156.155 91.098 156.139 90.8864 156.128C89.4533 156.044 88.0201 155.948 86.5923 155.848C86.3702 155.832 86.1533 155.816 85.9312 155.8C84.5034 155.695 83.0808 155.584 81.6529 155.462C81.4308 155.441 81.2087 155.425 80.9866 155.404C79.5587 155.277 78.1308 155.145 76.7083 155.002C76.4967 154.981 76.2799 154.96 76.0684 154.939C74.6299 154.791 73.1968 154.637 71.7583 154.473C71.5627 154.452 71.367 154.426 71.1713 154.405C69.717 154.235 68.2627 154.061 66.8084 153.876C66.6392 153.855 66.4699 153.834 66.3007 153.807C64.8199 153.617 63.3392 153.416 61.8585 153.204C61.7315 153.189 61.5993 153.167 61.4724 153.146C59.9493 152.93 58.4316 152.702 56.9138 152.464C56.845 152.454 56.771 152.443 56.7023 152.433C55.1422 152.189 53.5821 151.93 52.022 151.666C52.0062 151.661 51.985 151.661 51.9691 151.655C50.4144 151.391 48.8649 151.111 47.3154 150.825C47.2202 150.809 47.1303 150.793 47.0351 150.772C45.5385 150.492 44.0418 150.207 42.5505 149.905C42.4077 149.879 42.2649 149.847 42.1169 149.821C40.6626 149.53 39.203 149.223 37.7539 148.917C37.5741 148.88 37.3943 148.843 37.2145 148.8C35.7867 148.494 34.3588 148.176 32.9362 147.849C31.6934 147.563 30.456 147.278 29.2132 146.981C28.1555 147.753 27.0872 148.515 26.019 149.276C25.7017 149.503 25.3791 149.725 25.0618 149.953C24.295 150.492 23.5282 151.026 22.7613 151.56C22.4017 151.809 22.0421 152.057 21.6772 152.306C20.8787 152.855 20.0748 153.4 19.2657 153.945C18.9696 154.146 18.6787 154.341 18.3825 154.542C17.2931 155.272 16.1984 155.996 15.0985 156.715C14.8816 156.858 14.6648 156.995 14.448 157.138C13.5542 157.72 12.6552 158.301 11.7509 158.872C11.3807 159.105 11.0105 159.343 10.6403 159.575C9.85237 160.072 9.06439 160.569 8.27113 161.061C7.90623 161.289 7.53605 161.516 7.16586 161.743C6.21395 162.33 5.25146 162.917 4.28897 163.493C4.10388 163.604 3.91878 163.721 3.73369 163.832C2.50149 164.572 1.26401 165.307 0.0212402 166.031C0.391428 166.147 0.766904 166.258 1.13709 166.37C0.476043 167.475 0.137583 168.754 0.201044 170.092C0.264504 171.392 0.333256 172.693 0.402005 173.994C0.571234 177.182 3.04091 180.047 6.49423 181.004C75.4232 200.186 148.297 200.17 217.221 180.957C220.732 179.979 223.218 177.039 223.313 173.798C223.35 172.603 223.387 171.408 223.419 170.213C223.456 168.828 223.059 167.517 222.33 166.401C222.71 166.306 223.107 166.19 223.504 166.068Z" fill="#514561"/>
<path d="M29.1867 138.788C82.7845 151.641 138.641 151.8 192.297 139.264C202.175 145.889 212.583 152.096 223.503 157.838C150.688 180.234 72.8159 180.234 0 157.838C10.2066 151.884 19.9425 145.513 29.1867 138.788Z" fill="#606685"/>
<path d="M189.119 139.993C137.567 151.54 84.0595 151.397 32.5558 139.575C30.4193 139.083 28.1823 139.527 26.4054 140.786C19.0968 145.988 11.4921 150.969 3.60182 155.706C1.3754 157.038 0.0638837 159.365 0.185517 161.892C0.248978 163.193 0.317721 164.493 0.38647 165.794C0.555699 168.982 3.02538 171.848 6.4787 172.805C75.4076 191.987 148.282 191.971 217.205 172.757C220.717 171.779 223.202 168.839 223.298 165.598C223.335 164.404 223.372 163.209 223.403 162.014C223.472 159.423 222.039 157.081 219.691 155.807C211.129 151.17 202.895 146.242 194.989 141.055C193.265 139.924 191.144 139.543 189.119 139.993Z" fill="#CBD5DF"/>
<path d="M15.1035 153.856C19.9688 150.694 24.7125 147.443 29.3398 144.101C29.8845 143.705 30.5879 143.567 31.2542 143.72C83.5988 155.786 137.985 155.928 190.377 144.149C191.011 144.006 191.672 144.128 192.207 144.482C197.151 147.77 202.228 150.959 207.432 154.041C209.177 155.067 208.717 157.599 206.665 158.139C144.14 174.46 78.4479 174.381 15.9549 157.906C13.9453 157.372 13.4535 154.924 15.1035 153.856Z" fill="#606685"/>
<path d="M198.739 163.424C198.861 163.324 198.977 163.223 199.099 163.117C193.165 157.085 187.469 150.925 182.001 144.639C181.885 144.734 181.774 144.829 181.657 144.924C187.12 151.216 192.816 157.386 198.739 163.424Z" fill="#CBD5DF"/>
<path d="M183.958 166.681C184.084 166.597 184.217 166.512 184.344 166.428C179.367 159.951 174.586 153.379 170.012 146.728C169.89 146.807 169.769 146.886 169.642 146.971C174.216 153.622 178.986 160.199 183.958 166.681Z" fill="#CBD5DF"/>
<path d="M169.087 169.347C169.225 169.278 169.362 169.21 169.5 169.141C165.496 162.284 161.657 155.368 157.987 148.399C157.854 148.463 157.728 148.532 157.595 148.595C161.26 155.564 165.089 162.484 169.087 169.347Z" fill="#CBD5DF"/>
<path d="M154.137 171.413C154.279 171.36 154.427 171.307 154.57 171.254C151.561 164.085 148.679 156.884 145.918 149.656C145.781 149.704 145.649 149.751 145.511 149.804C148.261 157.037 151.133 164.238 154.137 171.413Z" fill="#CBD5DF"/>
<path d="M139.135 172.879C139.283 172.842 139.436 172.81 139.584 172.773C137.58 165.36 135.665 157.937 133.836 150.498C133.693 150.53 133.555 150.561 133.413 150.593C135.232 158.043 137.141 165.466 139.135 172.879Z" fill="#CBD5DF"/>
<path d="M124.088 173.751C124.242 173.735 124.4 173.719 124.554 173.698C123.57 166.116 122.634 158.529 121.735 150.937C121.587 150.952 121.444 150.968 121.296 150.984C122.184 158.576 123.11 166.169 124.088 173.751Z" fill="#CBD5DF"/>
<path d="M205.634 151.012C174.152 159.303 141.845 163.353 109.56 163.162C109.575 160.931 109.586 158.695 109.602 156.464C138.884 156.638 168.187 153.259 196.85 146.323C196.813 146.18 196.781 146.037 196.744 145.894C168.118 152.821 138.852 156.194 109.602 156.019C109.613 154.333 109.623 152.646 109.634 150.965C109.486 150.965 109.338 150.965 109.184 150.96C109.174 152.646 109.158 154.333 109.147 156.014C105.054 155.982 100.966 155.887 96.8781 155.718C97.0949 154.09 97.3064 152.456 97.518 150.827C97.3699 150.812 97.2271 150.79 97.079 150.775C96.8622 152.419 96.6454 154.058 96.4232 155.702C92.3406 155.528 88.258 155.284 84.1806 154.973C84.5931 153.408 85.0003 151.848 85.4075 150.283C85.2647 150.251 85.1272 150.214 84.9844 150.182C84.572 151.768 84.1542 153.355 83.7364 154.941C79.6643 154.624 75.5975 154.238 71.5361 153.783C72.1336 152.297 72.7259 150.812 73.3182 149.326C73.1807 149.273 73.0485 149.225 72.911 149.172C72.3082 150.695 71.7 152.213 71.0865 153.73C67.0356 153.27 62.9847 152.741 58.9497 152.149C59.7218 150.753 60.4886 149.352 61.2501 147.951C61.1232 147.882 60.991 147.819 60.8641 147.75C60.0761 149.194 59.2829 150.637 58.4843 152.075C54.4545 151.478 50.4354 150.806 46.4268 150.071C47.3628 148.771 48.2936 147.47 49.2137 146.164C49.0921 146.085 48.9705 146 48.8489 145.916C47.8864 147.274 46.9186 148.628 45.9402 149.976C41.9422 149.236 37.9548 148.427 33.9832 147.555C35.0726 146.365 36.1514 145.165 37.2249 143.965C37.1086 143.869 36.9975 143.769 36.8865 143.674C35.7601 144.937 34.6231 146.191 33.4755 147.444C30.625 146.809 27.7746 146.143 24.9347 145.44C24.8977 145.582 24.866 145.725 24.8289 145.868C27.5895 146.55 30.3606 147.2 33.1317 147.819C31.3866 149.717 29.6202 151.605 27.8275 153.482C23.877 152.556 19.9372 151.568 16.0132 150.51C15.9762 150.653 15.9392 150.796 15.8969 150.933C19.7415 151.969 23.602 152.937 27.4731 153.846C24.8713 156.564 22.2271 159.255 19.5353 161.92C19.6516 162.02 19.7732 162.126 19.8896 162.227C22.6396 159.498 25.3419 156.749 27.9914 153.968C32.2962 154.973 36.6168 155.898 40.9427 156.744C38.7533 159.657 36.5216 162.549 34.2476 165.425C34.3745 165.51 34.5014 165.6 34.6283 165.684C36.9394 162.755 39.2081 159.805 41.4345 156.839C45.7763 157.68 50.1234 158.446 54.4863 159.128C52.7147 162.211 50.906 165.277 49.0657 168.333C49.2032 168.402 49.3354 168.476 49.4729 168.545C51.3344 165.441 53.1642 162.327 54.9569 159.202C59.3252 159.884 63.6987 160.482 68.0827 161.005C66.7342 164.225 65.3645 167.44 63.9684 170.649C64.1112 170.702 64.2539 170.755 64.3967 170.813C65.8034 167.572 67.189 164.32 68.5428 161.063C72.9322 161.582 77.3268 162.02 81.7268 162.38C80.8172 165.716 79.8864 169.047 78.9398 172.373C79.0879 172.41 79.2413 172.447 79.3893 172.484C80.336 169.132 81.272 165.774 82.1816 162.417C86.5816 162.771 90.9868 163.046 95.3973 163.242C94.9266 166.662 94.4454 170.078 93.9589 173.499C94.1122 173.52 94.2709 173.536 94.4242 173.557C94.9108 170.126 95.3867 166.694 95.8574 163.263C100.263 163.453 104.678 163.564 109.089 163.596C109.063 167.07 109.041 170.549 109.015 174.022C109.174 174.022 109.332 174.022 109.491 174.028C109.512 170.554 109.533 167.075 109.554 163.601C141.882 163.792 174.226 159.742 205.745 151.441C205.708 151.298 205.671 151.155 205.634 151.012ZM28.3404 153.608C30.1279 151.731 31.8943 149.839 33.6341 147.941C37.6269 148.824 41.6355 149.638 45.6494 150.383C44.1951 152.387 42.7249 154.38 41.2336 156.363C36.9288 155.522 32.6293 154.608 28.3404 153.608ZM41.7307 156.458C43.2167 154.47 44.6869 152.477 46.1359 150.473C50.1657 151.213 54.206 151.89 58.2516 152.493C57.0882 154.576 55.9141 156.659 54.7242 158.732C50.3825 158.05 46.0513 157.294 41.7307 156.458ZM55.2002 158.806C56.3901 156.728 57.5641 154.65 58.7223 152.562C62.7785 153.164 66.8452 153.693 70.9173 154.158C70.0447 156.305 69.1616 158.451 68.2678 160.598C63.9049 160.075 59.5473 159.482 55.2002 158.806ZM68.7279 160.651C69.6164 158.504 70.4995 156.358 71.3668 154.211C75.4495 154.671 79.5321 155.057 83.6253 155.374C83.0436 157.569 82.4513 159.763 81.8537 161.957C77.4696 161.597 73.0961 161.164 68.7279 160.651ZM82.3085 161.994C82.9061 159.8 83.4931 157.606 84.0748 155.411C88.1733 155.723 92.2719 155.972 96.3757 156.146C96.0795 158.367 95.7781 160.593 95.4713 162.813C91.0767 162.613 86.6926 162.343 82.3085 161.994ZM95.9208 162.829C96.2223 160.609 96.5237 158.383 96.8199 156.162C100.924 156.331 105.033 156.432 109.142 156.458C109.126 158.689 109.11 160.926 109.094 163.157C104.705 163.125 100.31 163.02 95.9208 162.829Z" fill="#CBD5DF"/>
<path d="M11.8835 161.326C9.15469 160.581 6.55809 162.537 6.89126 165.138C7.01289 166.063 7.13452 166.989 7.26144 167.914C7.46769 169.447 8.69989 170.758 10.3499 171.203C14.533 172.329 18.732 173.386 22.9468 174.37C22.8834 170.954 22.8411 167.539 22.8146 164.123C19.1656 163.251 15.5166 162.315 11.8835 161.326Z" fill="#A5B6D4"/>
<path d="M26.2245 164.935C26.3091 168.355 26.4202 171.776 26.5524 175.202C28.4086 175.62 30.2648 176.016 32.1211 176.408C32.0417 173.008 31.9783 169.608 31.936 166.209C30.0321 165.796 28.1283 165.373 26.2245 164.935Z" fill="#A5B6D4"/>
<path d="M35.0552 166.863C35.1609 170.268 35.2932 173.673 35.4412 177.083C37.308 177.454 39.1801 177.813 41.0522 178.162C40.7931 174.746 40.5551 171.331 40.3436 167.915C38.5772 167.572 36.8162 167.223 35.0552 166.863Z" fill="#A5B6D4"/>
<path d="M212.271 161.149C156.109 176.546 97.2859 178.803 40.3405 167.912C40.5573 171.327 40.79 174.743 41.0491 178.158C98.3013 188.706 157.336 186.332 213.784 171.036C215.423 170.592 216.645 169.297 216.862 167.78C216.999 166.849 217.132 165.918 217.258 164.993C217.623 162.371 215.016 160.399 212.271 161.149Z" fill="#A5B6D4"/>
<path d="M189.17 171.787C188.995 170.92 189.619 170.064 190.571 169.863C191.523 169.662 192.443 170.196 192.629 171.058C192.814 171.919 192.19 172.786 191.227 172.993C190.27 173.194 189.344 172.654 189.17 171.787Z" fill="#606685"/>
<path d="M188.702 171.948C188.485 170.88 189.262 169.818 190.436 169.569C190.785 169.495 191.129 169.506 191.446 169.574C190.997 169.368 190.468 169.294 189.923 169.411C188.691 169.67 187.877 170.78 188.104 171.901C188.321 172.99 189.453 173.683 190.658 173.487C189.701 173.45 188.887 172.837 188.702 171.948Z" fill="#8BA1C4"/>
<path d="M196.77 170.162C196.653 169.649 197.018 169.126 197.584 168.999C198.15 168.867 198.705 169.179 198.827 169.692C198.949 170.205 198.584 170.728 198.013 170.86C197.441 170.987 196.886 170.675 196.77 170.162Z" fill="#CBD5DF"/>
<path d="M151.28 177.63C151.227 177.106 151.65 176.636 152.227 176.572C152.803 176.509 153.316 176.884 153.374 177.408C153.432 177.931 153.009 178.407 152.428 178.471C151.846 178.534 151.333 178.159 151.28 177.63Z" fill="white"/>
<path d="M62.0439 176.443C62.1126 175.919 62.6309 175.56 63.2073 175.634C63.7838 175.708 64.1962 176.189 64.1275 176.712C64.064 177.236 63.5405 177.6 62.9641 177.526C62.3876 177.447 61.9751 176.966 62.0439 176.443Z" fill="white"/>
<path d="M58.3888 175.951C58.4629 175.428 58.9864 175.073 59.5576 175.153C60.1287 175.232 60.5412 175.718 60.4724 176.237C60.4037 176.76 59.8801 177.12 59.2984 177.04C58.722 176.961 58.3148 176.469 58.3888 175.951Z" fill="white"/>
<path d="M13.6026 166.948C13.7348 166.44 14.3006 166.144 14.8665 166.292C15.4323 166.44 15.7814 166.969 15.6492 167.482C15.5169 167.989 14.9511 168.285 14.3852 168.137C13.8194 167.995 13.4703 167.461 13.6026 166.948Z" fill="#606685"/>
<path d="M196.348 170.246C196.194 169.575 196.676 168.898 197.416 168.723C197.633 168.676 197.85 168.676 198.051 168.718C197.765 168.591 197.427 168.554 197.088 168.633C196.311 168.808 195.814 169.522 195.967 170.225C196.12 170.907 196.84 171.33 197.596 171.192C196.998 171.177 196.475 170.801 196.348 170.246Z" fill="#8BA1C4"/>
<path d="M200.351 169.337C200.23 168.825 200.589 168.301 201.155 168.164C201.721 168.026 202.282 168.333 202.403 168.846C202.525 169.359 202.165 169.882 201.599 170.02C201.028 170.157 200.473 169.85 200.351 169.337Z" fill="#CBD5DF"/>
<path d="M199.927 169.422C199.769 168.75 200.245 168.068 200.98 167.894C201.196 167.841 201.413 167.841 201.62 167.883C201.334 167.761 200.996 167.724 200.657 167.804C199.885 167.989 199.388 168.702 199.552 169.406C199.71 170.088 200.435 170.505 201.191 170.357C200.583 170.347 200.059 169.977 199.927 169.422Z" fill="#8BA1C4"/>
<path d="M203.841 168.492C203.715 167.979 204.074 167.456 204.635 167.313C205.201 167.17 205.761 167.471 205.888 167.979C206.015 168.492 205.661 169.021 205.095 169.163C204.529 169.306 203.968 169.005 203.841 168.492Z" fill="#CBD5DF"/>
<path d="M203.418 168.58C203.254 167.914 203.719 167.221 204.46 167.042C204.676 166.989 204.893 166.984 205.099 167.021C204.814 166.899 204.475 166.867 204.132 166.952C203.36 167.142 202.873 167.866 203.042 168.564C203.206 169.241 203.936 169.654 204.687 169.5C204.084 169.506 203.555 169.135 203.418 168.58Z" fill="#8BA1C4"/>
<path d="M131.459 180.74C126.123 181.015 120.782 181.173 115.435 181.226C114.685 181.232 114.076 180.687 114.071 180.01C114.066 179.333 114.669 178.778 115.409 178.773C120.719 178.72 126.023 178.562 131.327 178.292C132.067 178.255 132.702 178.768 132.739 179.445C132.781 180.121 132.205 180.703 131.459 180.74Z" fill="#606685"/>
<path d="M98.8406 181.034C97.2435 180.981 95.6464 180.917 94.044 180.843C93.293 180.812 92.7166 180.23 92.7483 179.553C92.7801 178.876 93.4094 178.358 94.155 178.39C95.7416 178.464 97.3281 178.528 98.9199 178.58C99.6655 178.607 100.247 179.173 100.231 179.849C100.21 180.526 99.5862 181.055 98.8406 181.034Z" fill="#606685"/>
<path d="M89.7266 180.621C88.1295 180.531 86.5324 180.431 84.9353 180.32C84.1896 180.267 83.6238 179.675 83.6714 178.998C83.719 178.321 84.3641 177.819 85.1045 177.872C86.691 177.983 88.2776 178.083 89.8641 178.173C90.6045 178.216 91.1809 178.797 91.1439 179.474C91.1068 180.145 90.4722 180.664 89.7266 180.621Z" fill="#606685"/>
<path opacity="0.38" d="M185.798 143.59C185.089 142.548 183.365 141.856 181.43 141.787C178.516 141.163 175.079 141.776 173.434 143.389C172.297 144.51 171.408 145.599 170.705 146.625C169.843 146.292 168.817 146.075 167.691 146.011C164.708 145.847 161.99 145.874 159.594 146.011C159.7 143.701 159.266 141.771 158.774 140.375C158.251 138.911 156.061 137.816 153.412 137.7C150.186 137.557 147.346 138.89 147.024 140.698C146.569 143.23 144.951 146.255 143.464 148.629C143.105 149.205 142.967 149.792 143.031 150.368C140.953 149.855 139.144 149.374 138.07 149.052C134.892 148.1 130.947 148.75 129.181 150.511C127.187 152.499 128.805 155.031 132.607 155.83C136.711 156.691 142.798 157.596 147.653 158.13C148.737 158.632 149.996 159.039 151.402 159.303L158.922 160.747C161.466 161.233 164.19 161.217 166.675 160.736C168.865 160.689 170.895 160.028 172.048 158.981L176.432 157.321C176.665 157.231 176.877 157.141 177.083 157.04C176.988 157.194 176.892 157.347 176.797 157.49C175.782 159.071 177.194 160.815 179.976 161.423C183.112 162.111 186.618 161.064 187.332 159.213C188.21 156.951 188.247 154.968 188.003 153.429C188.167 153.128 188.273 152.811 188.294 152.478C188.564 148.528 187.067 145.446 185.798 143.59Z" fill="#261F31"/>
<path d="M9.31354 29.3425H2.71362V22.7441H9.31354V29.3425ZM3.88765 28.1688H8.14481V23.9126H3.88765V28.1688Z" fill="#1D93FF"/>
<path d="M23.9139 52.2577H19.752V48.0967H23.9139V52.2577ZM20.926 51.0892H22.7452V49.2704H20.926V51.0892Z" fill="#1D93FF"/>
<path d="M65.8664 29.7816H61.3025V25.2188H65.8664V29.7816ZM62.4712 28.6078H64.6924V26.3872H62.4712V28.6078Z" fill="#1D93FF"/>
<path d="M184.981 73.1488H174.976V63.1455H184.981V73.1488ZM176.144 71.9751H183.807V64.314H176.144V71.9751Z" fill="#1D93FF"/>
<path d="M193.206 89.3181H189.684V85.7969H193.206V89.3181ZM190.852 88.1444H192.032V86.9653H190.852V88.1444Z" fill="#1D93FF"/>
<path d="M201.335 47.204H196.316V42.1865H201.335V47.204ZM197.49 46.0356H200.161V43.3656H197.49V46.0356Z" fill="#1D93FF"/>
<path d="M54.0372 69.8013H51.1444V66.9092H54.0372V69.8013ZM52.3184 68.6275H52.8631V68.0829H52.3184V68.6275Z" fill="#1D93FF"/>
<path d="M20.0945 96.6498H12.3629V88.9199H20.0945V96.6498ZM13.5369 95.476H18.9205V90.0937H13.5369V95.476Z" fill="#1D93FF"/>
<path d="M81.212 21.7998H77.3673V22.9736H81.212V21.7998Z" fill="#1D93FF"/>
<path d="M84.4167 21.7998H83.2479V22.9736H84.4167V21.7998Z" fill="#1D93FF"/>
<path d="M95.3534 21.7998H88.6425V22.9736H95.3534V21.7998Z" fill="#1D93FF"/>
<path d="M79.8158 24.665H77.3673V25.8388H79.8158V24.665Z" fill="#1D93FF"/>
<path d="M16.0281 79.2334H12.1835V80.4072H16.0281V79.2334Z" fill="#1D93FF"/>
<path d="M19.2328 79.2334H18.0641V80.4072H19.2328V79.2334Z" fill="#1D93FF"/>
<path d="M30.1631 79.2334H23.4521V80.4072H30.1631V79.2334Z" fill="#1D93FF"/>
<path d="M14.632 82.0986H12.1835V83.2724H14.632V82.0986Z" fill="#1D93FF"/>
<path d="M194.524 98.8184H190.679V99.9921H194.524V98.8184Z" fill="#1D93FF"/>
<path d="M197.73 98.8184H196.561V99.9921H197.73V98.8184Z" fill="#1D93FF"/>
<path d="M208.66 98.8184H201.949V99.9921H208.66V98.8184Z" fill="#1D93FF"/>
<path d="M193.128 101.679H190.679V102.852H193.128V101.679Z" fill="#1D93FF"/>
<path d="M165.352 24.1943H152.797V25.8334H165.352V24.1943Z" fill="#1D93FF"/>
<path d="M168.69 29.625H166.147V31.0948H168.69V29.625Z" fill="#1D93FF"/>
<path d="M163.772 47.8271H162.075V52.464H163.772V47.8271Z" fill="#1D93FF"/>
<path d="M41.5244 62.374H38.6951V65.2027H41.5244V62.374Z" fill="#1D93FF"/>
<path d="M66.4746 49.5205H64.8511V59.2701H66.4746V49.5205Z" fill="#1D93FF"/>
<path d="M5.26207 54.4062H2.45923V57.2085H5.26207V54.4062Z" fill="#1D93FF"/>
<path d="M14.2529 62.6318H12.1852V64.6991H14.2529V62.6318Z" fill="#1D93FF"/>
<path d="M6.35182 110.723H4.28406V119.066H6.35182V110.723Z" fill="#1D93FF"/>
<path d="M46.6124 85.0234H44.9148V86.7206H46.6124V85.0234Z" fill="#1D93FF"/>
<path d="M140.021 12.6631H138.661V14.0219H140.021V12.6631Z" fill="#1D93FF"/>
<path d="M187.653 18.8799H183.56V22.9722H187.653V18.8799Z" fill="#1D93FF"/>
<path d="M197.014 4.74707H194.529V7.23205H197.014V4.74707Z" fill="#1D93FF"/>
<path d="M90.6443 0H89.2164V1.42754H90.6443V0Z" fill="#1D93FF"/>
<path d="M9.40168 4.74707H6.91614V7.23205H9.40168V4.74707Z" fill="#1D93FF"/>
<path d="M28.7433 9.27246H27.839V10.1766H28.7433V9.27246Z" fill="#1D93FF"/>
<path d="M235.999 116.276H232.863V119.412H235.999V116.276Z" fill="#1D93FF"/>
<path d="M7.4984 136.616H5.31958V138.795H7.4984V136.616Z" fill="#1D93FF"/>
<path d="M174.971 139.408L168.017 144.093C164.913 146.187 161.005 146.705 157.461 145.494L149.941 142.93C144.082 140.931 140.708 134.798 142.162 128.781L143.643 122.659C144.722 118.202 149.571 115.812 153.759 117.678L173.85 126.608C179.123 128.956 179.757 136.183 174.971 139.408Z" fill="#E48976"/>
<path d="M178.514 146.704C175.732 145.626 174.32 142.522 175.335 139.715C176.398 136.77 177.556 133.016 177.9 129.864C178.143 127.612 180.142 125.973 182.401 126.163C184.257 126.322 185.78 127.691 186.129 129.521C186.684 132.402 187.113 137.092 185.875 142.776C185.156 146.064 181.655 147.92 178.514 146.704Z" fill="#E48976"/>
<path d="M181.743 112.819C184.519 115.045 185.011 119.074 182.853 121.902C180.59 124.868 177.93 128.723 176.417 132.181C175.339 134.655 172.478 135.808 169.981 134.777C167.929 133.931 166.687 131.832 166.941 129.627C167.337 126.153 168.527 120.665 171.97 114.648C173.969 111.169 178.612 110.308 181.743 112.819Z" fill="#E48976"/>
<path d="M171.908 127.471C171.014 130.913 167.54 133.017 164.07 132.203C160.437 131.352 155.831 130.5 152.055 130.537C149.358 130.564 147.137 128.428 147.052 125.731C146.984 123.516 148.396 121.523 150.506 120.851C153.837 119.794 159.332 118.631 166.233 119.307C170.231 119.704 172.918 123.59 171.908 127.471Z" fill="#E48976"/>
<path d="M127.718 127.306C129.485 124.17 133.435 123.018 136.608 124.71C139.94 126.486 150.221 130.869 153.922 131.81C156.567 132.487 158.185 135.152 157.566 137.811C157.058 139.995 155.16 141.581 152.923 141.687C149.39 141.856 137.719 139.207 131.145 136.754C127.343 135.337 125.73 130.838 127.718 127.306Z" fill="#E48976"/>
<path d="M162.738 145.102C159.343 143.901 157.529 140.211 158.65 136.79C159.824 133.206 161.083 128.637 161.379 124.825C161.59 122.102 163.938 120.051 166.662 120.204C168.904 120.331 170.787 121.923 171.279 124.112C172.056 127.564 172.743 133.2 171.458 140.1C170.718 144.087 166.567 146.455 162.738 145.102Z" fill="#FEB290"/>
<path d="M178.925 137.012C175.393 136.314 173.066 132.925 173.679 129.383C174.324 125.666 174.906 120.96 174.647 117.148C174.462 114.426 176.487 112.052 179.205 111.808C181.442 111.607 183.537 112.913 184.341 115.007C185.61 118.312 187.106 123.789 186.831 130.8C186.673 134.855 182.907 137.8 178.925 137.012Z" fill="#FEB290"/>
<path d="M180.422 131.789C178.016 131.313 176.424 129.002 176.842 126.586C177.281 124.048 177.678 120.844 177.503 118.243C177.376 116.387 178.757 114.769 180.613 114.6C182.136 114.462 183.569 115.351 184.114 116.784C184.976 119.036 186.002 122.774 185.811 127.553C185.711 130.319 183.141 132.323 180.422 131.789Z" fill="#FFC7A4"/>
<path d="M166.033 138.236C163.642 137.681 162.135 135.317 162.632 132.911C163.156 130.389 163.663 127.201 163.573 124.595C163.51 122.734 164.948 121.163 166.805 121.063C168.333 120.978 169.729 121.914 170.232 123.363C171.019 125.642 171.913 129.411 171.564 134.186C171.363 136.946 168.724 138.865 166.033 138.236Z" fill="#FFC7A4"/>
<path d="M146.624 133.909C142.636 132.392 140.59 127.972 142.012 123.954C143.504 119.74 145.122 114.363 145.571 109.858C145.894 106.638 148.734 104.275 151.96 104.528C154.609 104.74 156.799 106.68 157.322 109.287C158.147 113.395 158.803 120.094 157.09 128.226C156.101 132.931 151.119 135.622 146.624 133.909Z" fill="#FEB290"/>
<path d="M150.712 125.866C147.894 125.141 146.175 122.302 146.831 119.468C147.523 116.497 148.211 112.732 148.179 109.645C148.153 107.44 149.898 105.621 152.103 105.547C153.917 105.489 155.546 106.636 156.096 108.365C156.963 111.088 157.92 115.577 157.376 121.218C157.064 124.486 153.885 126.685 150.712 125.866Z" fill="#FFC7A4"/>
<path opacity="0.38" d="M81.321 148.745C78.7932 147.682 75.0437 147.825 72.8755 149.078C72.1721 149.48 70.9875 150.099 69.6019 150.791C69.5808 150.733 69.5596 150.68 69.5332 150.627C69.9668 150.432 70.3476 150.204 70.6543 149.945C72.775 148.158 75.6043 145.123 76.699 141.026C77.3336 138.657 73.5894 136.563 68.8457 136.616C64.6414 136.664 61.278 138.393 61.2674 140.518C61.2621 141.845 61.1617 143.373 60.8549 144.859C60.7121 144.558 60.5588 144.256 60.379 143.944C59.3583 142.168 55.4132 141.28 52.0921 142.067C51.3676 142.236 50.7488 142.474 50.2358 142.755C49.0724 143.273 47.6974 143.955 46.2801 144.827C46.2695 144.806 46.259 144.785 46.2484 144.764C45.2277 142.987 41.2826 142.099 37.9615 142.887C36.8086 143.162 35.9096 143.595 35.3173 144.113C32.8529 145.044 29.9072 146.419 27.1996 148.359C25.5285 149.559 25.8405 151.124 27.6544 152.145C27.2842 152.24 26.9087 152.335 26.5332 152.441C23.8415 153.192 23.1328 154.984 25.0261 156.21C26.7025 157.294 29.7909 157.511 31.9856 156.692C33.5615 156.099 35.4601 155.444 37.3639 154.905C37.6124 155.127 37.9139 155.343 38.2788 155.544L43.4561 158.399C45.7671 159.674 49.1253 160.329 52.5363 160.171L59.7708 159.837C61.4419 159.758 62.9967 159.494 64.3559 159.087C64.377 159.081 64.4034 159.081 64.4246 159.076C67.5024 158.574 76.6249 155.528 81.4532 153.398C84.2455 152.15 84.1715 149.945 81.321 148.745Z" fill="#261F31"/>
<path d="M38.3994 131.692L44.058 137.878C46.5859 140.643 50.2613 142.06 53.9896 141.722L61.901 140.998C68.0673 140.432 72.7846 135.261 72.7846 129.075V122.778C72.7846 118.194 68.6279 114.731 64.1222 115.561L42.4926 119.526C36.8182 120.563 34.5072 127.436 38.3994 131.692Z" fill="#E48976"/>
<path d="M23.9097 133.151C25.7448 135.504 29.124 135.964 31.5197 134.187C34.037 132.321 37.2999 130.137 40.2191 128.905C42.308 128.028 43.3075 125.643 42.472 123.534C41.7845 121.805 40.0393 120.737 38.1884 120.927C35.2692 121.223 30.6524 122.159 25.5597 124.977C22.614 126.611 21.8419 130.497 23.9097 133.151Z" fill="#E48976"/>
<path d="M38.0621 104.257C34.8415 105.769 33.4136 109.571 34.8468 112.828C36.3487 116.243 38.0304 120.61 38.6862 124.327C39.1568 126.981 41.6635 128.774 44.3342 128.361C46.5236 128.023 48.2264 126.273 48.4961 124.068C48.9245 120.6 49.0567 114.985 47.1264 108.328C46.0106 104.479 41.6953 102.555 38.0621 104.257Z" fill="#E48976"/>
<path d="M53.5138 102.481C50.2932 103.993 48.8653 107.795 50.2985 111.052C51.8004 114.467 53.4821 118.834 54.1378 122.551C54.6085 125.205 57.1152 126.998 59.7858 126.585C61.9752 126.247 63.6781 124.497 63.9478 122.292C64.3762 118.824 64.5084 113.209 62.5781 106.552C61.4623 102.708 57.1469 100.779 53.5138 102.481Z" fill="#E48976"/>
<path d="M85.4757 116.984C82.7152 114.679 78.6114 114.996 76.2422 117.704C73.7514 120.543 65.6919 128.278 62.5611 130.472C60.3241 132.037 59.753 135.109 61.2761 137.372C62.5241 139.233 64.8563 140.047 66.9928 139.354C70.3562 138.265 80.3354 131.656 85.6185 127.041C88.6699 124.365 88.5906 119.586 85.4757 116.984Z" fill="#E48976"/>
<path d="M46.1003 125.486C49.5325 126.57 53.2026 124.719 54.3713 121.314C55.593 117.746 57.3434 113.341 59.4059 110.121C60.8814 107.822 60.2415 104.771 57.9727 103.248C56.1112 102 53.6415 102.133 51.9334 103.587C49.2363 105.876 45.2859 109.958 42.1551 116.239C40.3412 119.871 42.2292 124.265 46.1003 125.486Z" fill="#FEB290"/>
<path d="M28.8074 125.862C32.0386 127.448 35.9468 126.168 37.6126 122.98C39.3578 119.633 41.7481 115.541 44.2654 112.67C46.0687 110.619 45.8942 107.504 43.8793 105.659C42.2241 104.147 39.765 103.909 37.8559 105.088C34.8468 106.944 30.3252 110.391 26.2901 116.133C23.958 119.448 25.1637 124.069 28.8074 125.862Z" fill="#FEB290"/>
<path d="M30.784 120.796C32.9892 121.88 35.6493 121.007 36.7863 118.829C37.9762 116.545 39.605 113.759 41.3237 111.797C42.5506 110.396 42.4343 108.276 41.0593 107.017C39.9329 105.986 38.2565 105.823 36.9502 106.626C34.8983 107.89 31.8152 110.243 29.0652 114.155C27.4787 116.423 28.3037 119.575 30.784 120.796Z" fill="#FFC7A4"/>
<path d="M47.6072 118.022C49.8495 119.016 52.4778 118.043 53.5302 115.822C54.6302 113.496 56.148 110.641 57.7874 108.621C58.9614 107.172 58.7604 105.057 57.3378 103.852C56.1691 102.863 54.4874 102.768 53.2182 103.625C51.2139 104.973 48.2312 107.442 45.6346 111.46C44.1327 113.781 45.0794 116.901 47.6072 118.022Z" fill="#FFC7A4"/>
<path d="M71.8331 90.6797C67.2322 90.7802 63.5568 94.5341 63.5462 99.1339C63.5356 103.956 63.2395 110.004 62.0708 114.747C61.2352 118.136 63.2659 121.567 66.6399 122.472C69.411 123.217 72.3355 122.033 73.811 119.574C76.1326 115.693 79.2263 109.127 80.4215 100.239C81.1143 95.0998 77.021 90.5687 71.8331 90.6797Z" fill="#E48976"/>
<path d="M71.3682 93.598C67.9731 94.1268 65.5245 96.6593 65.8524 99.3082C66.1962 102.084 66.4183 105.595 65.9 108.439C65.5298 110.475 67.2803 112.241 69.8452 112.415C71.9499 112.558 74.0283 111.58 74.9432 110.015C76.3816 107.546 78.1903 103.453 78.4282 98.219C78.5604 95.1948 75.197 93.0059 71.3682 93.598Z" fill="#FEB290"/>
<path d="M188.431 124.481C188.431 121.034 184.65 118.242 179.98 118.242C177.352 118.242 175.004 119.13 173.454 120.516C174.93 118.691 177.632 117.465 180.72 117.465C185.39 117.465 189.171 120.256 189.171 123.704C189.171 125.211 188.447 126.591 187.246 127.669C187.997 126.733 188.431 125.644 188.431 124.481Z" fill="white"/>
<path d="M159.525 116.022C158.615 112.696 154.231 110.999 149.731 112.226C147.192 112.918 145.161 114.388 144.035 116.138C144.976 113.986 147.261 112.099 150.238 111.285C154.739 110.058 159.128 111.755 160.032 115.081C160.429 116.535 160.096 118.052 159.218 119.411C159.704 118.311 159.837 117.148 159.525 116.022Z" fill="white"/>
<path d="M23.9037 117.143C23.9037 113.087 28.3565 109.804 33.8459 109.804C36.9396 109.804 39.7001 110.845 41.5246 112.479C39.79 110.333 36.6117 108.895 32.9786 108.895C27.4892 108.895 23.0364 112.178 23.0364 116.233C23.0364 118.004 23.8878 119.628 25.2998 120.896C24.4166 119.797 23.9037 118.517 23.9037 117.143Z" fill="white"/>
</svg>