<svg width="24" height="24" viewBox="0 0 24 24" fill="none" xmlns="http://www.w3.org/2000/svg">
      <path d="M7.84727 9.73428C7.95466 9.84154 7.98684 10.0029 7.9288 10.1432C7.87076 10.2834 7.73394 10.3749 7.58216 10.3749C7.43038 10.3749 7.29356 10.2834 7.23552 10.1432C7.17748 10.0029 7.20966 9.84154 7.31705 9.73428V9.73428C7.46352 9.58799 7.7008 9.58799 7.84727 9.73428" />
      <path d="M12.2651 9.73428C12.3725 9.84154 12.4047 10.0029 12.3466 10.1432C12.2886 10.2834 12.1518 10.3749 12 10.3749C11.8482 10.3749 11.7114 10.2834 11.6534 10.1432C11.5953 10.0029 11.6275 9.84154 11.7349 9.73428V9.73428C11.8814 9.58799 12.1186 9.58799 12.2651 9.73428" />
      <path
        fillRule="evenodd"
        clipRule="evenodd"
        d="M20.9967 6.15975V13.8099C20.997 14.6526 20.6625 15.4609 20.0668 16.0569C19.4712 16.653 18.6631 16.988 17.8204 16.9883H12.9944L7.99233 20.9899V16.9883H6.16657C4.41178 16.9883 2.98925 15.5657 2.98925 13.8109V13.8109V6.15975C2.98925 4.40496 4.41178 2.98242 6.16657 2.98242H17.8194C19.5742 2.98242 20.9967 4.40496 20.9967 6.15975V6.15975Z"
      />
      <path d="M17.0021 13.0005H15.0013" />
</svg>